<svg width="25" height="25" viewBox="0 0 25 25" fill="none" xmlns="http://www.w3.org/2000/svg">
<path fill-rule="evenodd" clip-rule="evenodd" d="M9.67029 8.9484H14.1271V11.1684C14.7691 9.8916 16.4155 8.7444 18.8887 8.7444C23.6299 8.7444 24.7555 11.286 24.7555 15.9492V24.5856H19.9555V17.0112C19.9555 14.3556 19.3135 12.858 17.6791 12.858C15.4123 12.858 14.4703 14.472 14.4703 17.01V24.5856H9.67029V8.9484ZM1.43949 24.3816H6.23949V8.7444H1.43949V24.3816ZM6.92709 3.6456C6.92727 4.04793 6.84748 4.44628 6.69236 4.81751C6.53724 5.18873 6.30988 5.52542 6.02349 5.808C5.44317 6.38475 4.65767 6.70759 3.83949 6.7056C3.02276 6.70505 2.23907 6.38304 1.65789 5.8092C1.37255 5.52566 1.14596 5.18859 0.991106 4.81732C0.836255 4.44605 0.756188 4.04787 0.755493 3.6456C0.755493 2.8332 1.07949 2.0556 1.65909 1.482C2.23976 0.907392 3.02378 0.585243 3.84069 0.585602C4.65909 0.585602 5.44389 0.908402 6.02349 1.482C6.60189 2.0556 6.92709 2.8332 6.92709 3.6456Z" fill="#3C3C3C"></path>
</svg>