<svg width="24" height="24" viewBox="0 0 25 25" fill="none" xmlns="http://www.w3.org/2000/svg">
<path d="M12.0859 8.91724C9.88239 8.91724 8.08417 10.7155 8.08417 12.9189C8.08417 15.1224 9.88239 16.9206 12.0859 16.9206C14.2894 16.9206 16.0876 15.1224 16.0876 12.9189C16.0876 10.7155 14.2894 8.91724 12.0859 8.91724ZM24.088 12.9189C24.088 11.2618 24.103 9.61972 24.01 7.9656C23.9169 6.0443 23.4786 4.33915 22.0736 2.9342C20.6657 1.52625 18.9635 1.09095 17.0422 0.997891C15.3851 0.904828 13.743 0.919838 12.0889 0.919838C10.4318 0.919838 8.78965 0.904828 7.13553 0.997891C5.21423 1.09095 3.50908 1.52925 2.10412 2.9342C0.696171 4.34215 0.260876 6.0443 0.167813 7.9656C0.0747499 9.62272 0.0897601 11.2648 0.0897601 12.9189C0.0897601 14.5731 0.0747499 16.2182 0.167813 17.8723C0.260876 19.7936 0.699173 21.4987 2.10412 22.9037C3.51208 24.3116 5.21423 24.7469 7.13553 24.84C8.79265 24.9331 10.4348 24.9181 12.0889 24.9181C13.746 24.9181 15.3881 24.9331 17.0422 24.84C18.9635 24.7469 20.6687 24.3086 22.0736 22.9037C23.4816 21.4957 23.9169 19.7936 24.01 17.8723C24.106 16.2182 24.088 14.5761 24.088 12.9189ZM12.0859 19.0761C8.67858 19.0761 5.92871 16.3262 5.92871 12.9189C5.92871 9.51164 8.67858 6.76179 12.0859 6.76179C15.4932 6.76179 18.2431 9.51164 18.2431 12.9189C18.2431 16.3262 15.4932 19.0761 12.0859 19.0761ZM18.4952 7.94759C17.6997 7.94759 17.0572 7.30515 17.0572 6.50961C17.0572 5.71408 17.6997 5.07164 18.4952 5.07164C19.2908 5.07164 19.9332 5.71408 19.9332 6.50961C19.9334 6.69852 19.8964 6.88561 19.8242 7.06018C19.752 7.23475 19.6461 7.39337 19.5126 7.52694C19.379 7.66052 19.2204 7.76643 19.0458 7.83861C18.8712 7.91079 18.6841 7.94782 18.4952 7.94759Z" fill="#3C3C3C"></path>
</svg>