<svg width="25" height="21" viewBox="0 0 25 21" fill="none" xmlns="http://www.w3.org/2000/svg">
<path d="M22.1102 5.54827C22.1209 5.76428 22.1249 5.98294 22.1249 6.19894C22.1249 12.8523 17.0622 20.5216 7.80487 20.5216C4.96087 20.5216 2.31687 19.6883 0.0888672 18.2589C1.4067 18.4183 2.74302 18.3164 4.02145 17.959C5.29988 17.6017 6.49535 16.9959 7.53953 16.1763C6.48942 16.1564 5.47177 15.8089 4.62884 15.1823C3.78591 14.5558 3.15986 13.6814 2.8382 12.6816C3.59295 12.8228 4.36972 12.7931 5.11153 12.5949C3.97235 12.3639 2.94807 11.7462 2.21226 10.8464C1.47646 9.94653 1.07439 8.81998 1.0742 7.65761V7.59494C1.77313 7.98374 2.55482 8.19996 3.3542 8.22561C2.28736 7.51439 1.53217 6.42283 1.24276 5.17375C0.953342 3.92466 1.15153 2.61221 1.79687 1.50428C3.06059 3.05956 4.63734 4.33161 6.4247 5.23781C8.21207 6.14401 10.1701 6.6641 12.1715 6.76428C12.0849 6.38777 12.0416 6.00261 12.0422 5.61628C12.0422 4.95553 12.1724 4.30125 12.4253 3.69081C12.6782 3.08038 13.0488 2.52574 13.5161 2.05859C13.9834 1.59143 14.5381 1.2209 15.1486 0.968163C15.7591 0.715426 16.4135 0.585433 17.0742 0.585608C17.7628 0.584485 18.4443 0.724862 19.0764 0.998029C19.7085 1.2712 20.2778 1.67133 20.7489 2.17361C21.8757 1.95054 22.9564 1.53755 23.9449 0.952275C23.5689 2.11788 22.7824 3.10724 21.7315 3.73628C22.7292 3.618 23.7036 3.35104 24.6222 2.94428C23.9473 3.95552 23.0965 4.8375 22.1102 5.54827Z" fill="#3C3C3C"></path>
</svg>