<svg width="136" height="40" viewBox="0 0 136 40" fill="none" xmlns="http://www.w3.org/2000/svg">
<path fill-rule="evenodd" clip-rule="evenodd" d="M130.961 40H5.03889C2.26175 40 0 37.7456 0 35V5C0 2.24439 2.26175 0 5.03889 0H130.961C133.736 0 136 2.24439 136 5V35C136 37.7456 133.736 40 130.961 40Z" fill="black"></path>
<path fill-rule="evenodd" clip-rule="evenodd" d="M130.961 0.800499C133.29 0.800499 135.197 2.68828 135.197 5V35C135.197 37.3117 133.303 39.1995 130.961 39.1995H5.03889C2.70959 39.1995 0.80312 37.3117 0.80312 35V5C0.80312 2.68828 2.69708 0.800499 5.03889 0.800499C5.03889 0.800499 130.961 0.800499 130.961 0.800499ZM130.961 0H5.03889C2.26175 0 0 2.25436 0 5V35C0 37.7556 2.26175 40 5.03889 40H130.961C133.736 40 136 37.7556 136 35V5C136 2.25436 133.736 0 130.961 0Z" fill="#A6A6A6"></path>
<path d="M71.6453 13.232C70.7371 13.232 69.9715 12.9153 69.3661 12.2918C68.7656 11.6858 68.4304 10.8504 68.4454 9.99755C68.4454 9.08732 68.7556 8.31675 69.3661 7.70578C69.969 7.08233 70.7346 6.76562 71.6428 6.76562C72.541 6.76562 73.3066 7.08233 73.9221 7.70578C74.5325 8.3367 74.8428 9.10727 74.8428 9.99755C74.8328 10.9103 74.5225 11.6808 73.9221 12.2893C73.3191 12.9177 72.5535 13.232 71.6453 13.232ZM44.6221 13.232C43.7339 13.232 42.9634 12.9202 42.3329 12.3043C41.7074 11.6908 41.3896 10.9153 41.3896 10C41.3896 9.08483 41.7074 8.30927 42.3329 7.6958C42.9508 7.07984 43.7214 6.76812 44.6221 6.76812C45.0625 6.76812 45.4903 6.8554 45.9006 7.03246C46.3034 7.20453 46.6312 7.43894 46.8738 7.72572L46.9339 7.79804L46.2559 8.46139L46.1858 8.37909C45.803 7.92523 45.2901 7.70328 44.6121 7.70328C44.0067 7.70328 43.4787 7.91775 43.0434 8.34169C42.6056 8.76812 42.3829 9.32672 42.3829 10.0025C42.3829 10.6783 42.6056 11.2369 43.0434 11.6634C43.4787 12.0873 44.0067 12.3018 44.6121 12.3018C45.2576 12.3018 45.8005 12.0873 46.2233 11.6634C46.4735 11.414 46.6287 11.0649 46.6837 10.6235H44.5095V9.69081H47.6169L47.6294 9.7756C47.6519 9.93271 47.6745 10.0948 47.6745 10.2444C47.6745 11.1048 47.4143 11.8005 46.8989 12.3143C46.3134 12.9227 45.5478 13.232 44.6221 13.232ZM80.5521 13.0998H79.5939L76.6592 8.41899L76.6842 9.26188V13.0973H75.7259V6.90029H76.8193L76.8493 6.94767L79.6089 11.3566L79.5839 10.5162V6.90029H80.5521V13.0998V13.0998ZM64.4448 13.0998H63.4741V7.83296H61.7903V6.90029H66.1261V7.83296H64.4423V13.0998H64.4448ZM60.9997 13.0998H60.0314V6.90029H60.9997V13.0998ZM55.558 13.0998H54.5898V7.83296H52.906V6.90029H57.2418V7.83296H55.558V13.0998ZM52.293 13.0898H48.5802V6.90029H52.293V7.83296H49.5509V9.53371H52.0253V10.4564H49.5509V12.1571H52.293V13.0898ZM70.0766 11.6509C70.5094 12.0823 71.0349 12.2993 71.6453 12.2993C72.2733 12.2993 72.7862 12.0873 73.214 11.6509C73.6393 11.227 73.8545 10.6709 73.8545 10C73.8545 9.32922 73.6393 8.77061 73.2165 8.34917C72.7837 7.91774 72.2558 7.70079 71.6478 7.70079C71.0198 7.70079 70.507 7.91276 70.0816 8.34917C69.6563 8.77311 69.4411 9.32922 69.4411 10C69.4411 10.6709 69.6538 11.2295 70.0766 11.6509Z" fill="white"></path>
<path fill-rule="evenodd" clip-rule="evenodd" d="M68.3552 21.7557C65.9909 21.7557 64.0744 23.5437 64.0744 26.01C64.0744 28.4539 66.0034 30.2644 68.3552 30.2644C70.7196 30.2644 72.636 28.4639 72.636 26.01C72.636 23.5437 70.7196 21.7557 68.3552 21.7557ZM68.3552 28.5786C67.0617 28.5786 65.9484 27.5113 65.9484 26.0001C65.9484 24.4664 67.0642 23.4215 68.3552 23.4215C69.6487 23.4215 70.7621 24.4664 70.7621 26.0001C70.7646 27.5212 69.6487 28.5786 68.3552 28.5786ZM59.0155 21.7557C56.6512 21.7557 54.7347 23.5437 54.7347 26.01C54.7347 28.4539 56.6637 30.2644 59.0155 30.2644C61.3798 30.2644 63.2963 28.4639 63.2963 26.01C63.2963 23.5437 61.3773 21.7557 59.0155 21.7557ZM59.0155 28.5786C57.722 28.5786 56.6086 27.5113 56.6086 26.0001C56.6086 24.4664 57.7245 23.4215 59.0155 23.4215C60.309 23.4215 61.4224 24.4664 61.4224 26.0001C61.4224 27.5212 60.309 28.5786 59.0155 28.5786ZM47.9019 23.0549V24.8554H52.2378C52.1052 25.8654 51.7699 26.611 51.257 27.1222C50.6215 27.7557 49.6407 28.4439 47.9119 28.4439C45.2474 28.4439 43.1632 26.2993 43.1632 23.6434C43.1632 20.9876 45.2474 18.8429 47.9119 18.8429C49.3505 18.8429 50.3988 19.409 51.1769 20.1322L52.4579 18.8554C51.3771 17.823 49.9385 17.0325 47.9219 17.0325C44.2666 17.0325 41.1992 20.0001 41.1992 23.6335C41.1992 27.2769 44.2641 30.2345 47.9219 30.2345C49.8959 30.2345 51.3771 29.5911 52.548 28.3791C53.7414 27.1896 54.1192 25.5113 54.1192 24.1572C54.1192 23.7357 54.0867 23.3567 54.0191 23.035H47.8994C47.9019 23.0325 47.9019 23.0549 47.9019 23.0549ZM93.3596 24.4564C93.0018 23.5013 91.921 21.7457 89.7042 21.7457C87.5075 21.7457 85.6811 23.4689 85.6811 26.0001C85.6811 28.3891 87.4875 30.2544 89.9169 30.2544C91.8684 30.2544 93.0043 29.0649 93.4722 28.3666L92.0235 27.3991C91.5432 28.1098 90.8751 28.5761 89.9269 28.5761C88.9687 28.5761 88.2982 28.1422 87.8528 27.2868L93.5597 24.9302C93.5597 24.9327 93.3596 24.4564 93.3596 24.4564ZM87.5401 25.8779C87.495 24.2345 88.8211 23.3991 89.7693 23.3991C90.5174 23.3991 91.1404 23.7656 91.353 24.2993L87.5401 25.8779ZM82.904 30.0001H84.7779V17.5013H82.904V30.0001ZM79.8266 22.7008H79.759C79.3362 22.1996 78.5331 21.7457 77.5073 21.7457C75.3782 21.7457 73.4166 23.6135 73.4166 26.0125C73.4166 28.4015 75.3681 30.2469 77.5073 30.2469C78.5206 30.2469 79.3362 29.7906 79.759 29.2794H79.8266V29.8903C79.8266 31.5138 78.9559 32.3891 77.5523 32.3891C76.404 32.3891 75.6909 31.5661 75.4007 30.8779L73.7719 31.5562C74.2398 32.6784 75.4882 34.0674 77.5498 34.0674C79.7465 34.0674 81.608 32.7781 81.608 29.6335V22.0001H79.8366V22.7008C79.8391 22.7008 79.8266 22.7008 79.8266 22.7008ZM77.6749 28.5786C76.3814 28.5786 75.3006 27.5013 75.3006 26.0125C75.3006 24.5113 76.3814 23.424 77.6749 23.424C78.9559 23.424 79.9492 24.5237 79.9492 26.0125C79.9617 27.5013 78.9584 28.5786 77.6749 28.5786ZM102.134 17.5013H97.6529V30.0001H99.5268V25.2669H102.136C104.21 25.2669 106.25 23.7681 106.25 21.3891C106.25 19.01 104.218 17.5013 102.134 17.5013ZM102.189 23.5212H99.5243V19.232H102.189C103.592 19.232 104.386 20.3866 104.386 21.3766C104.386 22.3567 103.582 23.5212 102.189 23.5212ZM113.76 21.7332C112.399 21.7332 110.996 22.3342 110.415 23.6434L112.077 24.3317C112.434 23.6434 113.09 23.409 113.783 23.409C114.754 23.409 115.734 23.9876 115.757 25.02V25.1522C115.422 24.9626 114.686 24.6734 113.805 24.6734C112.012 24.6734 110.193 25.6509 110.193 27.4838C110.193 29.1621 111.664 30.2395 113.302 30.2395C114.561 30.2395 115.254 29.6734 115.687 29.0175H115.754V29.9851H117.561V25.1971C117.561 22.9676 115.9 21.7332 113.76 21.7332ZM113.525 28.5786C112.912 28.5786 112.054 28.2794 112.054 27.5113C112.054 26.5437 113.125 26.1771 114.038 26.1771C114.864 26.1771 115.254 26.3542 115.744 26.5986C115.609 27.7207 114.659 28.5686 113.525 28.5786ZM124.151 22.0001L121.999 27.4215H121.932L119.702 22.0001H117.686L121.031 29.5786L119.124 33.7906H121.076L126.222 22.0001H124.151ZM107.283 30.0001H109.157V17.5013H107.283V30.0001Z" fill="white"></path>
<path fill-rule="evenodd" clip-rule="evenodd" d="M10.4681 7.53364C10.1779 7.84536 10.0103 8.32167 10.0103 8.94511V31.0573C10.0103 31.6807 10.1779 32.157 10.4781 32.4563L10.5557 32.5236L22.9853 20.1346V19.8578L10.5457 7.46631L10.4681 7.53364Z" fill="url(#paint0_linear_811_2116)"></path>
<path fill-rule="evenodd" clip-rule="evenodd" d="M27.1208 24.2768L22.9751 20.1446V19.8553L27.1208 15.7231L27.2108 15.778L32.1146 18.5561C33.5182 19.3441 33.5182 20.6458 32.1146 21.4438L27.2108 24.2219L27.1208 24.2768Z" fill="url(#paint1_linear_811_2116)"></path>
<path fill-rule="evenodd" clip-rule="evenodd" d="M27.2112 24.2219L22.9754 20L10.4683 32.4663C10.9261 32.9551 11.6942 33.01 12.5524 32.5337L27.2112 24.2219Z" fill="url(#paint2_linear_811_2116)"></path>
<path fill-rule="evenodd" clip-rule="evenodd" d="M27.2112 15.7781L12.5524 7.47882C11.6942 6.99004 10.9236 7.05737 10.4683 7.54615L22.9754 20L27.2112 15.7781Z" fill="url(#paint3_linear_811_2116)"></path>
<path opacity="0.2" fill-rule="evenodd" clip-rule="evenodd" d="M27.1209 24.1321L12.5621 32.3766C11.749 32.8429 11.0234 32.8105 10.5556 32.3865L10.478 32.4638L10.5556 32.5312C11.0234 32.9526 11.749 32.9875 12.5621 32.5212L27.221 24.2219L27.1209 24.1321Z" fill="black"></path>
<path opacity="0.12" fill-rule="evenodd" clip-rule="evenodd" d="M32.1148 21.2993L27.1084 24.1322L27.1985 24.2219L32.1023 21.4439C32.8053 21.0449 33.1506 20.5212 33.1506 20C33.108 20.4788 32.7503 20.9327 32.1148 21.2993Z" fill="black"></path>
<path opacity="0.25" fill-rule="evenodd" clip-rule="evenodd" d="M12.5522 7.62342L32.1149 18.7008C32.7504 19.0574 33.1081 19.5237 33.1632 20C33.1632 19.4788 32.8179 18.9551 32.1149 18.5561L12.5522 7.47878C11.1486 6.67828 10.0103 7.34661 10.0103 8.94512V9.08975C10.0103 7.48875 11.1486 6.83289 12.5522 7.62342Z" fill="white"></path>
<defs>
<linearGradient id="paint0_linear_811_2116" x1="21.8704" y1="8.70654" x2="1.96892" y2="14.0267" gradientUnits="userSpaceOnUse">
<stop stop-color="#00A0FF"></stop>
<stop offset="0.00657" stop-color="#00A1FF"></stop>
<stop offset="0.2601" stop-color="#00BEFF"></stop>
<stop offset="0.5122" stop-color="#00D2FF"></stop>
<stop offset="0.7604" stop-color="#00DFFF"></stop>
<stop offset="1" stop-color="#00E3FF"></stop>
</linearGradient>
<linearGradient id="paint1_linear_811_2116" x1="33.945" y1="20" x2="9.66903" y2="20" gradientUnits="userSpaceOnUse">
<stop stop-color="#FFE000"></stop>
<stop offset="0.4087" stop-color="#FFBD00"></stop>
<stop offset="0.7754" stop-color="#FFA500"></stop>
<stop offset="1" stop-color="#FF9C00"></stop>
</linearGradient>
<linearGradient id="paint2_linear_811_2116" x1="24.9079" y1="22.2973" x2="9.00136" y2="49.1571" gradientUnits="userSpaceOnUse">
<stop stop-color="#FF3A44"></stop>
<stop offset="1" stop-color="#C31162"></stop>
</linearGradient>
<linearGradient id="paint3_linear_811_2116" x1="7.31882" y1="0.178805" x2="14.4154" y2="12.1748" gradientUnits="userSpaceOnUse">
<stop stop-color="#32A071"></stop>
<stop offset="0.0685" stop-color="#2DA771"></stop>
<stop offset="0.4762" stop-color="#15CF74"></stop>
<stop offset="0.8009" stop-color="#06E775"></stop>
<stop offset="1" stop-color="#00F076"></stop>
</linearGradient>
</defs>
</svg>