<svg width="120" height="40" viewBox="0 0 120 40" fill="none" xmlns="http://www.w3.org/2000/svg"><g clip-path="url(#a)"><path d="M110.444 0H9.561c-.367 0-.73 0-1.097.002-.307.002-.612.008-.922.013-.673.008-1.345.067-2.01.176a6.697 6.697 0 0 0-1.906.627 6.455 6.455 0 0 0-2.804 2.8 6.588 6.588 0 0 0-.627 1.903 12.957 12.957 0 0 0-.18 2.002c-.01.307-.01.615-.015.921V31.56c.005.31.006.61.015.921.008.671.068 1.34.18 2.002.11.663.322 1.306.627 1.905A6.208 6.208 0 0 0 2.003 38a6.291 6.291 0 0 0 1.623 1.179c.6.304 1.243.517 1.907.63.664.11 1.336.168 2.01.177.31.007.614.011.92.011.367.002.73.002 1.098.002h100.883c.36 0 .727 0 1.087-.002.306 0 .619-.004.924-.01a13.352 13.352 0 0 0 2.006-.178 6.833 6.833 0 0 0 1.914-.63A6.296 6.296 0 0 0 117.996 38a6.368 6.368 0 0 0 1.185-1.614c.303-.6.512-1.242.621-1.905.112-.661.174-1.33.186-2.002.004-.31.004-.61.004-.921.008-.364.008-.725.008-1.094V9.536c0-.366 0-.73-.008-1.092 0-.306 0-.614-.004-.92a13.437 13.437 0 0 0-.186-2.003 6.59 6.59 0 0 0-.621-1.903 6.474 6.474 0 0 0-2.806-2.8 6.798 6.798 0 0 0-1.914-.627c-.663-.11-1.333-.169-2.006-.176-.305-.005-.618-.011-.924-.013-.36-.002-.727-.002-1.087-.002Z" fill="#A6A6A6"></path><path d="M8.469 39.125c-.306 0-.604-.004-.907-.01a12.767 12.767 0 0 1-1.875-.164 5.912 5.912 0 0 1-1.661-.548 5.42 5.42 0 0 1-1.401-1.016 5.322 5.322 0 0 1-1.023-1.397 5.71 5.71 0 0 1-.545-1.657 12.38 12.38 0 0 1-.167-1.875 90.92 90.92 0 0 1-.015-.913v-23.1s.01-.692.015-.895c.008-.628.063-1.253.166-1.872.096-.579.28-1.14.545-1.662a5.58 5.58 0 0 1 2.424-2.42 5.85 5.85 0 0 1 1.658-.545C6.305.95 6.934.895 7.564.887L8.47.875h103.057l.916.013c.624.007 1.247.061 1.863.162a5.965 5.965 0 0 1 1.676.548 5.6 5.6 0 0 1 2.422 2.42c.261.52.442 1.076.536 1.649.105.624.163 1.255.175 1.887.003.283.003.588.003.89.008.375.008.732.008 1.092v20.929c0 .363 0 .718-.008 1.075 0 .325 0 .623-.004.93-.012.62-.069 1.24-.172 1.853a5.718 5.718 0 0 1-.541 1.67c-.264.513-.608.98-1.019 1.386a5.412 5.412 0 0 1-1.403 1.022 5.897 5.897 0 0 1-1.673.55c-.619.101-1.246.156-1.874.163-.294.007-.601.011-.9.011l-1.087.002-101.975-.002Z" fill="#000"></path><path d="M24.838 20.3a4.938 4.938 0 0 1 2.363-4.151A5.075 5.075 0 0 0 23.2 13.99c-1.684-.176-3.316 1.005-4.174 1.005-.875 0-2.196-.988-3.619-.958a5.341 5.341 0 0 0-4.486 2.727c-1.939 3.349-.492 8.27 1.366 10.977.929 1.325 2.015 2.805 3.437 2.753 1.39-.058 1.91-.885 3.59-.885 1.663 0 2.15.885 3.6.852 1.493-.025 2.433-1.332 3.33-2.67a10.948 10.948 0 0 0 1.523-3.092 4.793 4.793 0 0 1-2.128-1.76 4.772 4.772 0 0 1-.8-2.64ZM22.099 12.211a4.864 4.864 0 0 0 1.118-3.49A4.976 4.976 0 0 0 20 10.38a4.633 4.633 0 0 0-1.147 3.361 4.12 4.12 0 0 0 3.246-1.53ZM42.421 27.14h-4.747l-1.14 3.356h-2.01l4.496-12.418h2.089l4.496 12.418H43.56L42.42 27.14Zm-4.255-1.55h3.763l-1.855-5.446h-.052l-1.856 5.447ZM55.315 25.97c0 2.813-1.51 4.62-3.79 4.62a3.085 3.085 0 0 1-2.856-1.583h-.043v4.484h-1.864V21.442h1.804v1.506h.034a3.218 3.218 0 0 1 2.891-1.6c2.305 0 3.824 1.816 3.824 4.622Zm-1.916 0c0-1.833-.95-3.038-2.4-3.038-1.423 0-2.381 1.23-2.381 3.038 0 1.824.958 3.046 2.382 3.046 1.45 0 2.399-1.197 2.399-3.046ZM65.307 25.97c0 2.813-1.51 4.62-3.789 4.62a3.085 3.085 0 0 1-2.856-1.583h-.044v4.484h-1.863V21.442h1.804v1.506h.034a3.217 3.217 0 0 1 2.89-1.6c2.305 0 3.824 1.816 3.824 4.622Zm-1.915 0c0-1.833-.95-3.038-2.4-3.038-1.424 0-2.381 1.23-2.381 3.038 0 1.824.957 3.046 2.381 3.046 1.45 0 2.4-1.197 2.4-3.046ZM71.912 27.036c.138 1.232 1.337 2.04 2.977 2.04 1.57 0 2.7-.808 2.7-1.919 0-.964-.681-1.54-2.295-1.936l-1.614-.388c-2.286-.55-3.348-1.617-3.348-3.348 0-2.142 1.872-3.614 4.531-3.614 2.632 0 4.436 1.472 4.496 3.614h-1.881c-.113-1.239-1.14-1.987-2.641-1.987-1.502 0-2.529.757-2.529 1.858 0 .878.656 1.395 2.261 1.79l1.372.336c2.555.603 3.617 1.626 3.617 3.443 0 2.323-1.856 3.778-4.807 3.778-2.762 0-4.627-1.42-4.747-3.667h1.908ZM83.58 19.3v2.142h1.727v1.472H83.58v4.991c0 .776.346 1.137 1.105 1.137.205-.004.41-.018.613-.043v1.463a5.125 5.125 0 0 1-1.035.086c-1.838 0-2.555-.689-2.555-2.444v-5.19h-1.32v-1.472h1.32V19.3h1.872ZM86.307 25.97c0-2.849 1.682-4.639 4.306-4.639 2.632 0 4.307 1.79 4.307 4.639 0 2.856-1.666 4.638-4.307 4.638-2.64 0-4.306-1.782-4.306-4.638Zm6.714 0c0-1.954-.898-3.108-2.408-3.108-1.51 0-2.407 1.162-2.407 3.108 0 1.962.897 3.106 2.407 3.106s2.408-1.144 2.408-3.106ZM96.456 21.442h1.778v1.541h.043a2.16 2.16 0 0 1 2.183-1.635c.215-.001.429.022.639.069v1.738a2.607 2.607 0 0 0-.837-.112 1.883 1.883 0 0 0-1.86 1.286 1.868 1.868 0 0 0-.082.797v5.37h-1.864v-9.054ZM109.691 27.837c-.25 1.643-1.855 2.771-3.909 2.771-2.641 0-4.281-1.764-4.281-4.595 0-2.84 1.649-4.682 4.203-4.682 2.512 0 4.091 1.72 4.091 4.466v.637h-6.412v.112a2.353 2.353 0 0 0 1.462 2.391c.311.127.645.186.98.173a2.059 2.059 0 0 0 2.097-1.273h1.769Zm-6.299-2.702h4.539a2.185 2.185 0 0 0-.61-1.634 2.196 2.196 0 0 0-1.617-.664 2.3 2.3 0 0 0-2.312 2.298ZM37.932 8.731a2.654 2.654 0 0 1 2.112.818 2.638 2.638 0 0 1 .704 2.147c0 1.906-1.033 3.002-2.816 3.002h-2.161V8.73h2.161ZM36.7 13.854h1.128a1.886 1.886 0 0 0 1.911-1.322 1.87 1.87 0 0 0 .063-.824 1.876 1.876 0 0 0-1.16-1.999 1.891 1.891 0 0 0-.814-.135H36.7v4.28ZM41.798 12.444a2.127 2.127 0 0 1 1.264-2.154 2.146 2.146 0 0 1 2.448.517 2.131 2.131 0 0 1 .547 1.637 2.128 2.128 0 0 1-1.263 2.158 2.145 2.145 0 0 1-2.451-.517 2.133 2.133 0 0 1-.545-1.64Zm3.342 0c0-.976-.44-1.546-1.211-1.546-.775 0-1.21.57-1.21 1.546 0 .984.435 1.55 1.21 1.55.771 0 1.211-.57 1.211-1.55ZM51.718 14.698h-.924l-.934-3.317h-.07l-.93 3.317h-.915L46.7 10.195h.904l.809 3.436h.067l.928-3.436h.855l.928 3.436h.07l.806-3.436h.89l-1.239 4.503ZM54.005 10.195h.858v.715h.066a1.35 1.35 0 0 1 1.348-.802 1.474 1.474 0 0 1 1.512 1.026c.066.21.083.431.05.649v2.915h-.89v-2.692c0-.724-.316-1.084-.975-1.084a1.04 1.04 0 0 0-1.03.703 1.03 1.03 0 0 0-.048.438v2.635h-.891v-4.503ZM59.26 8.437h.89v6.26h-.89v-6.26ZM61.39 12.444a2.128 2.128 0 0 1 1.264-2.154 2.144 2.144 0 0 1 2.895 1.278c.094.282.128.58.1.876a2.13 2.13 0 0 1-1.263 2.158 2.143 2.143 0 0 1-2.898-1.28 2.13 2.13 0 0 1-.099-.878Zm3.342 0c0-.976-.44-1.546-1.212-1.546-.774 0-1.21.57-1.21 1.546 0 .984.436 1.55 1.21 1.55.772 0 1.212-.57 1.212-1.55ZM66.587 13.424c0-.81.606-1.277 1.68-1.344l1.223-.07v-.389c0-.476-.315-.744-.924-.744-.498 0-.843.182-.942.5h-.862c.09-.773.82-1.27 1.845-1.27 1.132 0 1.77.563 1.77 1.514v3.077h-.858v-.633h-.07a1.518 1.518 0 0 1-1.356.707 1.367 1.367 0 0 1-1.386-.796 1.356 1.356 0 0 1-.12-.552Zm2.903-.384v-.377l-1.103.07c-.621.042-.903.253-.903.65 0 .405.352.64.837.64a1.07 1.07 0 0 0 1.057-.576 1.06 1.06 0 0 0 .112-.407ZM71.548 12.444c0-1.423.734-2.324 1.875-2.324a1.492 1.492 0 0 1 1.385.79h.066V8.437h.891v6.26h-.854v-.71h-.07a1.565 1.565 0 0 1-1.418.785c-1.149 0-1.875-.901-1.875-2.328Zm.92 0c0 .955.452 1.53 1.207 1.53.752 0 1.216-.583 1.216-1.526 0-.938-.47-1.53-1.216-1.53-.75 0-1.206.58-1.206 1.526ZM79.453 12.444a2.127 2.127 0 0 1 1.263-2.154 2.146 2.146 0 0 1 2.449.517 2.131 2.131 0 0 1 .546 1.637 2.127 2.127 0 0 1-1.263 2.158 2.145 2.145 0 0 1-2.45-.517 2.133 2.133 0 0 1-.546-1.64Zm3.342 0c0-.976-.44-1.546-1.212-1.546-.774 0-1.21.57-1.21 1.546 0 .984.436 1.55 1.21 1.55.772 0 1.212-.57 1.212-1.55ZM84.907 10.195h.858v.715h.067a1.35 1.35 0 0 1 1.347-.802 1.473 1.473 0 0 1 1.513 1.026c.065.21.082.431.05.649v2.915h-.891v-2.692c0-.724-.315-1.084-.974-1.084a1.039 1.039 0 0 0-1.03.703 1.03 1.03 0 0 0-.049.438v2.635h-.89v-4.503ZM93.778 9.074v1.141h.978v.749h-.978v2.315c0 .472.194.678.638.678.114 0 .227-.007.34-.02v.74a2.92 2.92 0 0 1-.485.046c-.991 0-1.386-.348-1.386-1.216v-2.543h-.717v-.749h.717V9.074h.892ZM95.973 8.437h.883v2.482h.071a1.386 1.386 0 0 1 1.377-.807 1.493 1.493 0 0 1 1.173.474 1.482 1.482 0 0 1 .382 1.204v2.908h-.892V12.01c0-.72-.336-1.084-.966-1.084a1.056 1.056 0 0 0-1.137 1.142v2.63h-.89V8.437ZM105.055 13.482a1.835 1.835 0 0 1-1.956 1.303 2.06 2.06 0 0 1-1.583-.681 2.05 2.05 0 0 1-.503-1.644 2.077 2.077 0 0 1 2.082-2.352c1.256 0 2.014.856 2.014 2.27v.31h-3.188v.05a1.19 1.19 0 0 0 1.202 1.29 1.088 1.088 0 0 0 1.075-.546h.857Zm-3.134-1.451h2.28a1.072 1.072 0 0 0-.296-.829 1.088 1.088 0 0 0-.815-.338 1.16 1.16 0 0 0-1.084.718 1.15 1.15 0 0 0-.085.449Z" fill="#fff"></path></g><defs><clipPath id="a"><path fill="#fff" d="M0 0h120v40H0z"></path></clipPath></defs></svg>