<svg width="826" height="136" viewBox="0 0 826 136" fill="none" xmlns="http://www.w3.org/2000/svg">
<g clip-path="url(#clip0_401_20)">
<path d="M166.51 65.78C167.33 63.31 167.74 60.44 167.74 57.56C167.74 38.65 152.53 23.43 133.62 23.43C129.51 23.43 125.4 24.25 121.7 25.49C113.47 10.28 97.44 0 78.94 0C52.62 0 31.25 21.38 31.25 47.69C31.25 50.57 31.66 53.86 32.07 56.73C18.91 58.79 9.04004 69.89 9.04004 83.46C9.04004 93.33 13.98 101.55 21.79 106.49C28.37 102.79 36.18 99.91 44.82 97.44C44.82 97.44 34.95 63.73 46.46 61.26C60.43 58.79 61.26 62.5 89.63 59.62C120.05 56.33 146.36 61.26 146.36 61.26C151.71 61.26 151.3 72.36 150.47 80.59C149.65 88.81 146.77 96.21 146.77 96.21C157.46 99.09 166.92 102.79 174.73 107.31C181.31 103.2 185.42 96.21 185.42 88.4C186.24 76.48 177.61 67.02 166.51 65.79" fill="black"/>
<path d="M97.85 115.53C137.32 115.53 172.68 120.87 195.7 135.26C180.9 115.53 142.66 101.55 97.85 101.55C53.04 101.55 14.8 115.12 0 134.85C23.02 120.88 58.38 115.53 97.85 115.53Z" fill="black"/>
<path d="M653.3 92.1C650.84 95.8 647.54 98.27 643.43 100.32C635.21 103.61 627.81 101.96 622.46 94.15L667.27 75.65C666.86 74.01 666.04 72.36 665.63 70.71C657.82 52.62 641.37 39.88 619.99 48.92C601.49 56.73 594.5 77.29 602.31 95.79V96.2C610.53 115.93 630.27 123.33 649.59 115.52C656.17 112.64 661.11 108.94 664.81 104.42L653.29 92.08L653.3 92.1ZM625.75 63.32C633.56 60.03 640.55 63.73 645.07 71.54L617.52 83.05C615.46 74.01 617.93 66.6 625.74 63.32" fill="black"/>
<path d="M197.35 71.95C197.35 46.46 216.26 25.49 242.57 25.49C259.02 25.49 268.47 31.25 277.51 39.88L270.52 47.28C263.12 40.29 254.49 34.95 242.15 34.95C222.42 34.95 207.62 50.98 207.62 71.54V71.95C207.62 92.92 222.83 108.96 242.15 108.96C254.49 108.96 262.3 104.44 270.93 96.21L277.51 102.79C268.06 112.25 257.78 118.41 241.75 118.41C216.26 118 197.35 97.44 197.35 71.95Z" fill="black"/>
<path d="M296.02 23.03H286.15V116.77H296.02V23.03Z" fill="black"/>
<path d="M303.42 83.46C303.42 64.55 318.22 48.51 337.95 48.51C357.68 48.51 372.49 64.14 372.49 83.05V83.46C372.49 102.37 357.69 118 337.95 118C318.21 118 303.42 102.38 303.42 83.46ZM362.21 83.46C362.21 69.07 351.52 57.56 337.54 57.56C323.56 57.56 313.29 69.07 313.29 83.05V83.46C313.29 97.85 323.98 109.36 337.54 109.36C352.34 108.95 362.21 97.44 362.21 83.46Z" fill="black"/>
<path d="M380.3 91.2699V50.1499H390.17V88.7999C390.17 101.14 396.75 108.95 408.67 108.95C419.77 108.95 428.41 100.73 428.41 87.9799V50.1499H438.28V116.35H428.41V104.83C423.89 111.82 417.31 117.58 405.8 117.58C389.35 117.99 380.31 106.89 380.31 91.2699" fill="black"/>
<path d="M444.85 83.46C444.85 61.67 460.47 48.92 476.51 48.92C488.84 48.92 496.66 55.5 502 62.9V23.02H511.87V116.76H502V103.6C496.66 111.41 488.84 118.4 476.51 118.4C460.48 117.99 444.85 105.24 444.85 83.45M502 83.46C502 67.84 490.49 57.56 478.15 57.56C465.81 57.56 454.72 67.02 454.72 83.05V83.46C454.72 99.08 465.41 108.95 478.15 108.95C490.89 108.95 502 98.67 502 83.46Z" fill="black"/>
<path d="M541.88 107.31V116.35H522.56V23.03H541.88V57.56C546.4 50.98 552.98 46.46 563.26 46.46C579.29 46.46 594.5 59.2 594.5 81.82V82.23C594.5 105.26 579.71 117.59 563.26 117.59C552.98 117.59 546.4 113.07 541.88 107.31ZM575.18 82.23C575.18 70.72 567.37 62.91 558.32 62.91C549.27 62.91 541.47 70.31 541.47 81.82V82.23C541.47 93.74 548.87 101.14 558.32 101.14C567.77 101.14 575.18 93.74 575.18 82.23Z" fill="black"/>
<path d="M670.57 82.23C670.57 59.2 685.37 46.46 701.82 46.46C712.1 46.46 718.67 50.98 723.2 56.74V23.03H742.53V116.77H723.2V106.9C718.68 113.48 712.1 118 701.82 118C685.79 117.59 670.57 105.26 670.57 82.23ZM723.6 82.23C723.6 70.72 716.2 62.91 706.74 62.91C697.28 62.91 689.89 70.31 689.89 81.82V82.23C689.89 93.74 697.7 101.14 706.74 101.14C715.78 101.14 723.6 93.74 723.6 82.23Z" fill="black"/>
<path d="M749.09 107.31L757.31 94.5601C764.71 99.9101 772.52 102.78 779.1 102.78C784.86 102.78 787.32 100.72 787.32 97.8501V97.4401C787.32 93.3301 780.74 91.6801 772.93 89.6301C763.47 86.7501 752.37 82.2301 752.37 69.0701V68.6601C752.37 54.6801 763.47 46.8701 777.45 46.8701C786.09 46.8701 795.54 49.7501 802.94 54.6801L795.54 68.2501C788.96 64.1401 781.97 61.6701 777.04 61.6701C772.52 61.6701 770.05 63.7301 770.05 66.1901V66.6001C770.05 70.3001 776.63 72.3601 784.03 74.8201C793.49 78.1101 805 82.6301 805 95.3801V95.7901C805 111 793.49 117.99 778.69 117.99C769.23 117.58 758.14 114.29 749.09 107.3" fill="black"/>
<path d="M811.58 111.42C811.58 107.72 814.46 104.43 818.57 104.43C822.27 104.43 825.56 107.72 825.56 111.42C825.56 115.12 822.68 118.41 818.57 118.41C814.46 118.41 811.58 115.53 811.58 111.42ZM824.33 111.42C824.33 108.13 821.86 105.25 818.16 105.25C814.87 105.25 811.99 108.13 811.99 111.42C811.99 114.71 814.46 117.59 818.16 117.59C821.86 117.59 824.33 115.12 824.33 111.42ZM815.29 107.72H818.58C819.4 107.72 820.22 108.13 820.64 108.54C821.05 108.95 821.46 109.36 821.46 110.19C821.46 111.42 820.64 112.25 819.81 112.25L821.46 114.71H819.4L817.75 112.25H816.52V114.71H814.88L815.29 107.72ZM818.57 111.42C819.39 111.42 819.8 111.01 819.8 110.19C819.8 109.37 819.39 108.95 818.57 108.95H816.93V111.01C816.93 111.42 818.57 111.42 818.57 111.42Z" fill="black"/>
</g>
<defs>
<clipPath id="clip0_401_20">
<rect width="825.57" height="135.26" fill="white"/>
</clipPath>
</defs>
</svg>
