<svg width="188" height="50" viewBox="0 0 188 50" fill="none" xmlns="http://www.w3.org/2000/svg">
<path d="M13.1465 19.2249C13.1465 22.806 13.5705 23.6542 16.5391 23.6542V24.7379H6.64391V23.6542C9.56534 23.6542 9.98942 22.806 9.98942 19.2249V5.79573C9.98942 4.19366 10.4135 2.21462 8.19886 2.21462C4.90047 2.21462 2.26175 4.71197 0.848157 7.44493L0 7.06797L2.30887 1.13086H20.8741L23.1359 7.06797L22.3348 7.44493C20.9684 4.66485 18.1412 2.26174 14.937 2.21462C12.7695 2.21462 13.1465 4.19366 13.1465 5.79573V19.2249Z" fill="#3A739D"/>
<path d="M25.1148 15.8323C25.1148 18.9893 26.0572 23.6542 30.0624 23.6542C32.2299 23.6542 34.0676 22.4762 35.3398 20.7327L35.9053 21.2511C34.5388 23.4657 32.3241 25.0678 29.6854 25.0678C25.1619 25.0678 21.9106 21.3924 21.9106 17.0103C21.9106 12.9108 24.785 8.62292 29.2613 8.62292C33.2665 8.62292 36.0466 12.0627 36.0466 15.8794H25.1148V15.8323ZM32.7482 14.6072C32.9367 12.3925 31.9943 9.65956 29.1671 9.65956C26.4342 9.65956 25.3033 12.4396 25.2562 14.6072H32.7482Z" fill="#3A739D"/>
<path d="M40.0049 5.60727C40.0049 2.8272 39.5337 2.92144 37.272 2.78008V1.83768L42.8321 0V20.2616C42.8321 23.2772 42.8321 23.4657 45.0468 23.7484V24.6908H37.8374V23.7484C40.0049 23.5128 40.0049 23.2772 40.0049 20.2616V5.60727Z" fill="#3A739D"/>
<path d="M49.6644 15.8323C49.6644 18.9893 50.6068 23.6542 54.612 23.6542C56.7795 23.6542 58.6171 22.4762 59.8894 20.7327L60.4548 21.2511C59.0884 23.4657 56.8737 25.0678 54.235 25.0678C49.7115 25.0678 46.4602 21.3924 46.4602 17.0103C46.4602 12.9108 49.3345 8.62292 53.8109 8.62292C57.8161 8.62292 60.5962 12.0627 60.5962 15.8794H49.6644V15.8323ZM57.3449 14.6072C57.5334 12.3925 56.591 9.65956 53.7638 9.65956C51.0308 9.65956 49.9 12.4396 49.8528 14.6072H57.3449Z" fill="#3A739D"/>
<path d="M67.193 20.3087C67.193 23.3243 67.193 23.5128 69.3605 23.7955V24.7379H62.1511V23.7955C64.3186 23.5599 64.3186 23.3243 64.3186 20.3087V13.382C64.2244 11.6857 64.1773 11.0732 62.2454 11.0732V10.3192L67.1458 8.43445V11.6386C68.4181 9.98941 70.35 8.67005 72.4704 8.67005C74.3081 8.67005 75.6745 9.94229 76.2871 11.6386C77.8421 10.1308 79.4913 8.67005 81.8001 8.67005C83.1666 8.67005 84.486 9.14125 85.2399 10.4606C85.9467 11.6857 85.8996 13.4763 85.8996 14.8899V20.3558C85.8996 23.3715 85.8996 23.5599 88.0671 23.8427V24.7851H80.9049V23.8427C83.0724 23.6071 83.0724 23.3715 83.0724 20.3558V14.6072C83.0724 12.8637 83.1195 10.4135 80.7164 10.4135C79.0201 10.4135 77.5593 11.5915 76.5227 12.7695V20.4029C76.5227 23.4186 76.5227 23.6071 78.6902 23.8898V24.8322H71.528V23.8898C73.6955 23.6542 73.6955 23.4186 73.6955 20.4029V14.6543C73.6955 12.9108 73.6484 10.4606 71.2453 10.4606C69.549 10.4606 68.0882 11.6386 67.1458 12.8166V20.3087H67.193Z" fill="#3A739D"/>
<path d="M92.8733 15.8323C92.8733 18.9893 93.8157 23.6542 97.8209 23.6542C99.9884 23.6542 101.826 22.4762 103.098 20.7327L103.664 21.2511C102.297 23.4657 100.083 25.0678 97.444 25.0678C92.9205 25.0678 89.6692 21.3924 89.6692 17.0103C89.6692 12.9108 92.5435 8.62292 97.0199 8.62292C101.025 8.62292 103.805 12.0627 103.805 15.8794H92.8733V15.8323ZM100.554 14.6072C100.742 12.3925 99.8 9.65956 96.9728 9.65956C94.2398 9.65956 93.1089 12.4396 93.0618 14.6072H100.554Z" fill="#3A739D"/>
<path d="M116.669 5.60727C116.669 2.8272 116.198 2.92144 113.936 2.78008V1.83768L119.496 0V20.2616C119.496 23.2772 119.496 23.4657 121.664 23.7484V24.6908H116.622V22.8532C115.444 24.0312 113.889 25.0207 112.192 25.0207C107.857 25.0207 105.973 20.5914 105.973 16.8689C105.973 10.602 109.695 8.57583 112.004 8.57583C113.842 8.57583 115.302 9.51822 116.622 10.6491V5.60727H116.669ZM116.669 12.0156C115.821 11.0732 114.407 9.98943 113.088 9.98943C109.931 9.98943 109.083 14.4187 109.083 16.8218C109.083 19.3192 109.884 23.6542 113.088 23.6542C114.407 23.6542 115.774 22.5704 116.669 21.6752V12.0156Z" fill="#3A739D"/>
<path d="M128.213 20.3087C128.213 23.3243 128.213 23.5128 130.381 23.7956V24.7379H123.171V23.7956C125.339 23.56 125.339 23.3243 125.339 20.3087V13.4292C125.245 11.7329 125.198 11.1203 123.266 11.1203V10.3664L128.166 8.48157V20.3087H128.213ZM126.376 5.08894C125.198 5.08894 124.208 4.14654 124.208 2.96854C124.208 1.79054 125.15 0.801025 126.328 0.801025C127.506 0.801025 128.496 1.74342 128.496 2.96854C128.496 4.09942 127.554 5.08894 126.376 5.08894Z" fill="#3A739D"/>
<path d="M145.883 20.8741C144.328 23.2301 142.019 25.0678 139.098 25.0678C134.904 25.0678 131.889 21.2511 131.889 17.2459C131.889 12.4868 135.14 8.62292 140.088 8.62292C141.925 8.62292 145.365 9.75381 145.365 12.0156C145.365 12.958 144.564 13.6176 143.622 13.6176C141.218 13.6176 142.161 9.70668 139.098 9.70668C135.8 9.70668 135.14 14.0888 135.14 16.5391C135.14 19.6019 136.836 23.3715 140.417 23.3715C142.585 23.3715 143.998 21.9579 145.412 20.45L145.883 20.8741Z" fill="#3A739D"/>
<path d="M151.962 20.3087C151.962 23.3243 151.962 23.5128 154.129 23.7956V24.7379H146.92V23.7956C149.087 23.56 149.087 23.3243 149.087 20.3087V13.4292C148.993 11.7329 148.946 11.1203 147.014 11.1203V10.3664L151.915 8.48157V20.3087H151.962ZM150.124 5.08894C148.946 5.08894 147.957 4.14654 147.957 2.96854C147.957 1.79054 148.899 0.801025 150.077 0.801025C151.255 0.801025 152.244 1.74342 152.244 2.96854C152.244 4.09942 151.255 5.08894 150.124 5.08894Z" fill="#3A739D"/>
<path d="M160.396 20.3087C160.396 23.3243 160.396 23.5128 162.564 23.7955V24.7379H155.402V23.7955C157.569 23.5599 157.569 23.3243 157.569 20.3087V13.382C157.475 11.6857 157.428 11.0732 155.496 11.0732V10.3192L160.396 8.43445V11.1674C161.621 9.84805 163.648 8.67005 165.438 8.67005C166.569 8.67005 167.7 9.14125 168.501 9.94228C169.585 11.1203 169.585 12.6281 169.585 14.136V20.3558C169.585 23.3715 169.585 23.5599 171.752 23.8427V24.7851H164.543V23.8427C166.758 23.6071 166.758 23.3715 166.758 20.3558V14.7014C166.758 12.7695 166.616 10.3664 164.072 10.3664C162.658 10.3664 161.339 11.5444 160.349 12.4868V20.3087H160.396Z" fill="#3A739D"/>
<path d="M176.747 15.8323C176.747 18.9893 177.689 23.6542 181.694 23.6542C183.862 23.6542 185.7 22.4762 186.972 20.7327L187.537 21.2511C186.171 23.4657 183.956 25.0678 181.318 25.0678C176.794 25.0678 173.543 21.3924 173.543 17.0103C173.543 12.9108 176.417 8.62292 180.893 8.62292C184.899 8.62292 187.679 12.0627 187.679 15.8794H176.747V15.8323ZM184.427 14.6072C184.616 12.3925 183.674 9.65956 180.846 9.65956C178.113 9.65956 176.982 12.4396 176.935 14.6072H184.427Z" fill="#3A739D"/>
<path d="M59.2299 40.5231C59.2299 39.298 58.9943 37.8844 57.4864 37.8844C56.2142 37.8844 55.6959 38.7326 55.4131 39.7692C55.1775 40.5231 54.8477 41.0414 53.9524 41.0414C53.2456 41.0414 52.7744 40.6174 52.7744 39.9577C52.7744 37.8844 55.6959 37.0834 57.3451 37.0834C58.3817 37.0834 59.6539 37.2719 60.5021 37.9786C61.3974 38.7326 61.3974 39.7692 61.3974 40.853V46.5545C61.3974 47.167 61.3974 48.2508 62.1513 48.2508C62.5754 48.2508 62.8581 47.9681 63.1879 47.6382L63.5178 48.1566C62.9052 49.099 62.1513 49.9 60.9733 49.9C59.9366 49.9 59.3712 49.099 59.277 48.1566C58.1461 49.099 56.7796 49.9 55.2718 49.9C53.5283 49.9 52.3032 48.6749 52.3032 46.9314C52.3032 43.5859 56.6383 42.7378 59.2299 42.2666V40.5231ZM59.2299 43.0205C57.4393 43.3032 54.7063 44.5283 54.7063 46.6016C54.7063 47.7796 55.5545 48.5335 56.544 48.5335C57.4864 48.5335 58.6173 47.8267 59.2299 47.1199V43.0205Z" fill="#3A739D"/>
<path d="M67.8057 46.1304C67.8057 48.4864 67.8057 48.6278 69.5021 48.8162V49.523H63.8948V48.8162C65.5911 48.6278 65.5911 48.4864 65.5911 46.1304V40.7587C65.4969 39.4394 65.4969 38.9682 63.9419 38.9682V38.3556L67.7586 36.8949V39.0153C68.701 37.9787 70.3031 37.0834 71.6696 37.0834C72.5648 37.0834 73.413 37.4132 74.0256 38.0729C74.8737 39.0153 74.8737 40.1462 74.8737 41.3242V46.1304C74.8737 48.4864 74.8737 48.6278 76.57 48.8162V49.523H70.9628V48.8162C72.7062 48.6278 72.7062 48.4864 72.7062 46.1304V41.7483C72.7062 40.2404 72.612 38.3556 70.6329 38.3556C69.5492 38.3556 68.5125 39.2509 67.7586 40.0048V46.1304H67.8057Z" fill="#3A739D"/>
<path d="M86.5121 34.7274C86.5121 32.5598 86.1823 32.6541 84.3917 32.5127V31.8059L88.7267 30.3923V46.1304C88.7267 48.4864 88.7267 48.6277 90.4231 48.8162V49.523H86.5121V48.1094C85.5697 49.0518 84.3917 49.8057 83.0724 49.8057C79.7268 49.8057 78.219 46.366 78.219 43.4917C78.219 38.5912 81.1404 37.0362 82.8839 37.0362C84.2975 37.0362 85.4755 37.7902 86.5121 38.6854V34.7274ZM86.5121 39.7221C85.8524 39.0153 84.7687 38.1671 83.732 38.1671C81.2818 38.1671 80.6221 41.6069 80.6221 43.4917C80.6221 45.4236 81.2347 48.8162 83.732 48.8162C84.7687 48.8162 85.8524 47.9681 86.5121 47.2613V39.7221Z" fill="#3A739D"/>
<path d="M100.601 42.6906C100.601 45.1409 101.308 48.7691 104.465 48.7691C106.161 48.7691 107.575 47.8267 108.564 46.5074L108.988 46.9314C107.952 48.6749 106.161 49.9 104.135 49.9C100.648 49.9 98.0566 47.0257 98.0566 43.633C98.0566 40.4289 100.271 37.1305 103.805 37.1305C106.915 37.1305 109.083 39.8163 109.083 42.7849H100.601V42.6906ZM106.585 41.7482C106.727 40.0048 105.973 37.8844 103.805 37.8844C101.685 37.8844 100.79 40.0519 100.742 41.7482H106.585Z" fill="#3A739D"/>
<path d="M115.444 42.2195V44.0572H109.789V42.2195H115.444Z" fill="#3A739D"/>
<path d="M129.156 39.5807V35.4813C129.156 32.7483 128.826 32.0415 126.847 32.0415V31.1934H134.009V32.0415C131.936 32.0415 131.653 32.7012 131.653 35.4813V45.2822C131.653 48.0623 131.983 48.722 134.009 48.722V49.5701H126.847V48.722C128.826 48.722 129.156 48.0623 129.156 45.2822V40.7116H121.381V45.2822C121.381 48.0623 121.711 48.722 123.69 48.722V49.5701H116.575V48.722C118.554 48.722 118.884 48.0623 118.884 45.2822V35.4813C118.884 32.7483 118.554 32.0415 116.575 32.0415V31.1934H123.69V32.0415C121.711 32.0415 121.381 32.7012 121.381 35.4813V39.5807H129.156Z" fill="#3A739D"/>
<path d="M138.203 42.6906C138.203 45.1409 138.909 48.7691 142.067 48.7691C143.763 48.7691 145.176 47.8267 146.166 46.5074L146.59 46.9314C145.553 48.6749 143.763 49.9 141.737 49.9C138.25 49.9 135.658 47.0257 135.658 43.633C135.658 40.4289 137.873 37.1305 141.407 37.1305C144.517 37.1305 146.684 39.8163 146.684 42.7849H138.203V42.6906ZM144.187 41.7482C144.328 40.0048 143.574 37.8844 141.407 37.8844C139.286 37.8844 138.391 40.0519 138.344 41.7482H144.187Z" fill="#3A739D"/>
<path d="M155.166 40.5231C155.166 39.298 154.93 37.8844 153.422 37.8844C152.15 37.8844 151.632 38.7326 151.349 39.7692C151.114 40.5231 150.784 41.0414 149.888 41.0414C149.182 41.0414 148.71 40.6174 148.71 39.9577C148.71 37.8844 151.632 37.0834 153.281 37.0834C154.318 37.0834 155.59 37.2719 156.438 37.9786C157.333 38.7326 157.333 39.7692 157.333 40.853V46.5545C157.333 47.167 157.333 48.2508 158.087 48.2508C158.511 48.2508 158.794 47.9681 159.124 47.6382L159.454 48.1566C158.841 49.099 158.087 49.9 156.909 49.9C155.873 49.9 155.307 49.099 155.213 48.1566C154.082 49.099 152.716 49.9 151.208 49.9C149.464 49.9 148.239 48.6749 148.239 46.9314C148.239 43.5859 152.574 42.7378 155.166 42.2666V40.5231ZM155.166 43.0205C153.375 43.3032 150.642 44.5283 150.642 46.6016C150.642 47.7796 151.491 48.5335 152.48 48.5335C153.422 48.5335 154.553 47.8267 155.166 47.1199V43.0205Z" fill="#3A739D"/>
<path d="M161.668 34.7274C161.668 32.5598 161.339 32.6541 159.548 32.5127V31.8059L163.883 30.3923V46.1304C163.883 48.4864 163.883 48.6277 165.627 48.8162V49.523H160.019V48.8162C161.716 48.6277 161.716 48.4864 161.716 46.1304V34.7274H161.668Z" fill="#3A739D"/>
<path d="M166.098 38.1672V37.5546C167.935 36.8007 169.066 34.8688 169.302 32.9369H170.15V37.319H173.637V38.1672H170.15V45.7535C170.15 46.8844 170.009 48.5336 171.564 48.5336C172.553 48.5336 173.119 47.921 173.778 47.2613L174.202 47.7797C173.26 48.8634 171.988 49.8529 170.48 49.8529C168.265 49.8529 167.935 48.0624 167.935 46.2718V38.1672H166.098Z" fill="#3A739D"/>
<path d="M178.208 46.1304C178.208 48.4864 178.208 48.6277 179.904 48.8162V49.523H174.297V48.8162C175.993 48.6277 175.993 48.4864 175.993 46.1304V34.7274C175.993 32.5598 175.663 32.6541 173.873 32.5127V31.8059L178.208 30.3923V39.0153C179.338 37.9786 181.129 37.0834 182.637 37.0834C185.276 37.0834 185.794 38.9682 185.794 41.6069V46.1775C185.794 48.5335 185.794 48.6749 187.49 48.8633V49.5701H181.93V48.8633C183.626 48.6749 183.626 48.5335 183.626 46.1775V41.6069C183.626 39.8634 183.297 38.4498 181.6 38.4498C180.281 38.4498 179.15 39.3451 178.255 40.1462V46.1304H178.208Z" fill="#3A739D"/>
</svg>
