<svg width="259" height="48" viewBox="0 0 259 48" fill="none" xmlns="http://www.w3.org/2000/svg">
<path d="M1.873 16.5207C2.0651 17.3371 2.40127 17.9614 2.8335 18.3937C3.31375 18.8739 3.98608 19.066 4.85053 19.066C5.52289 19.066 6.09919 18.9219 6.53142 18.6338C6.96364 18.3456 7.29984 18.0095 7.53996 17.5772C7.78009 17.145 7.92417 16.6648 8.02022 16.0885C8.11627 15.5121 8.16429 14.9839 8.16429 14.3595V1.58484H10.0853V15.176C10.0853 15.8003 9.98924 16.4727 9.84517 17.145C9.65307 17.8174 9.36492 18.3937 8.98072 18.9219C8.54849 19.4502 8.0202 19.8824 7.34785 20.2666C6.6755 20.6028 5.85906 20.7949 4.85053 20.7949C3.55385 20.7949 2.49732 20.4587 1.63287 19.7864C0.768415 19.114 0.240126 18.1535 0 16.8569L1.873 16.5207Z" fill="#3A739D"/>
<path d="M26.7501 14.1675C26.7501 15.08 26.606 15.9444 26.2699 16.7609C25.9337 17.5773 25.5015 18.2496 24.9252 18.8259C24.3489 19.4022 23.6285 19.8825 22.8601 20.1706C22.0436 20.5068 21.1792 20.6509 20.2187 20.6509C19.2582 20.6509 18.3937 20.5068 17.5773 20.1706C16.7609 19.8345 16.0885 19.4022 15.5122 18.8259C14.9359 18.2496 14.4557 17.5773 14.1675 16.7609C13.8313 15.9444 13.6873 15.08 13.6873 14.1675C13.6873 13.255 13.8313 12.3906 14.1675 11.5741C14.5037 10.7577 14.9359 10.0853 15.5122 9.50904C16.0885 8.93274 16.8089 8.45249 17.5773 8.16433C18.3937 7.82816 19.2582 7.68408 20.2187 7.68408C21.1792 7.68408 22.0917 7.82816 22.8601 8.16433C23.6765 8.50051 24.3489 8.93274 24.9252 9.50904C25.5015 10.0853 25.9817 10.7577 26.2699 11.5741C26.606 12.3425 26.7501 13.207 26.7501 14.1675ZM24.8771 14.1675C24.8771 13.4951 24.7811 12.8228 24.5409 12.2465C24.3008 11.6702 24.0127 11.1419 23.5804 10.6616C23.1962 10.2294 22.668 9.89324 22.0917 9.60509C21.5154 9.36496 20.891 9.22089 20.1226 9.22089C19.4023 9.22089 18.7299 9.36496 18.1536 9.60509C17.5773 9.84522 17.097 10.2294 16.7128 10.6616C16.3286 11.0939 15.9925 11.6221 15.8004 12.2465C15.6083 12.8708 15.4642 13.4951 15.4642 14.1675C15.4642 14.8398 15.5603 15.5122 15.8004 16.0885C16.0405 16.6648 16.3286 17.1931 16.7128 17.6733C17.097 18.1056 17.5773 18.4417 18.1536 18.7299C18.7299 18.97 19.3542 19.1141 20.1226 19.1141C20.843 19.1141 21.5154 18.97 22.0917 18.7299C22.668 18.4898 23.1482 18.1056 23.5804 17.6733C23.9646 17.2411 24.3008 16.7128 24.5409 16.0885C24.733 15.5122 24.8771 14.8398 24.8771 14.1675Z" fill="#3A739D"/>
<path d="M38.9005 20.3627C38.8524 20.0266 38.8524 19.6904 38.8524 19.3542C38.8524 19.018 38.8524 18.6818 38.8524 18.3457H38.8044C38.6123 18.6818 38.3722 18.97 38.084 19.2581C37.7959 19.5463 37.4597 19.7864 37.0755 19.9785C36.6913 20.1706 36.3071 20.3627 35.8749 20.4588C35.4426 20.5548 35.0584 20.6509 34.6262 20.6509C33.0414 20.6509 31.8407 20.2187 31.1204 19.4022C30.352 18.5858 29.9678 17.3852 29.9678 15.8003V7.92419H31.6967V14.7918C31.6967 15.4642 31.7447 16.0885 31.8407 16.6168C31.9368 17.145 32.1289 17.5773 32.369 17.9615C32.6092 18.3457 32.9453 18.5858 33.3776 18.7779C33.8098 18.97 34.3381 19.066 35.0104 19.066C35.1065 19.066 35.3466 19.018 35.7308 18.97C36.115 18.922 36.5472 18.6818 37.0275 18.3937C37.4597 18.0575 37.8919 17.5773 38.2281 16.9529C38.5643 16.3286 38.7564 15.4161 38.7564 14.3115V7.97222H40.4853V17.6253C40.4853 17.9615 40.4853 18.3937 40.5333 18.8739C40.5813 19.4022 40.5813 19.8825 40.6293 20.3147H38.9005V20.3627Z" fill="#3A739D"/>
<path d="M44.8556 11.8142C44.8556 11.2859 44.8556 10.7096 44.8075 10.1333C44.7595 9.557 44.7595 8.83662 44.7595 7.92414H46.4884V10.2293H46.5365C46.6805 9.89317 46.8246 9.557 47.0647 9.26884C47.3049 8.98069 47.593 8.69254 47.8812 8.45242C48.2173 8.21229 48.6015 8.02019 49.0337 7.87612C49.466 7.73204 49.9462 7.63599 50.5225 7.63599C51.0028 7.63599 51.435 7.68401 51.8192 7.78006L51.4831 9.50897C51.2429 9.41292 50.9067 9.36489 50.4745 9.36489C49.8022 9.36489 49.2259 9.50897 48.7456 9.7491C48.2654 9.98922 47.8812 10.3254 47.545 10.7096C47.2088 11.0938 47.0167 11.526 46.8246 12.0063C46.6805 12.4865 46.5845 12.9188 46.5845 13.351V20.3627H44.8556V11.8142Z" fill="#3A739D"/>
<path d="M55.6131 7.97224C55.6611 8.30841 55.6612 8.64458 55.6612 8.98076C55.6612 9.31694 55.6612 9.65312 55.6612 9.98929H55.7092C55.9013 9.65312 56.1414 9.36497 56.4296 9.07682C56.7177 8.78867 57.0539 8.54854 57.4381 8.35644C57.8223 8.16434 58.2065 7.97224 58.6387 7.87619C59.0709 7.78014 59.4551 7.68408 59.8874 7.68408C61.4722 7.68408 62.6728 8.11631 63.3932 8.93274C64.1616 9.74917 64.5458 10.9498 64.5458 12.5346V20.4108H62.8169V13.5432C62.8169 12.1504 62.5768 11.0939 62.0965 10.3735C61.6163 9.65312 60.7518 9.26892 59.4551 9.26892C59.3591 9.26892 59.119 9.31694 58.7348 9.36496C58.3506 9.41299 57.9183 9.65311 57.4381 9.94127C57.0058 10.2774 56.5736 10.7577 56.2374 11.382C55.9013 12.0064 55.7092 12.9188 55.7092 14.0234V20.3627H53.9803V10.7097C53.9803 10.3735 53.9803 9.94127 53.9322 9.46101C53.8842 8.93274 53.8842 8.45248 53.8362 8.02026H55.6131V7.97224Z" fill="#3A739D"/>
<path d="M76.6002 12.7747V12.4385C76.6002 10.3254 75.5437 9.22082 73.4306 9.22082C71.9898 9.22082 70.7412 9.70107 69.6366 10.6616L68.58 9.41292C69.7326 8.21229 71.5096 7.63599 73.8148 7.63599C74.3911 7.63599 75.0154 7.73204 75.5437 7.92414C76.12 8.11624 76.6002 8.35636 76.9844 8.74056C77.3686 9.12477 77.7048 9.55699 77.9449 10.0853C78.1851 10.6135 78.3291 11.2859 78.3291 12.0543V17.5772C78.3291 18.0575 78.3292 18.5377 78.3772 19.066C78.4252 19.5943 78.4732 20.0265 78.5212 20.3627H76.8404C76.7923 20.0745 76.7443 19.7383 76.7443 19.4022C76.6963 19.066 76.6963 18.6818 76.6963 18.3936H76.6483C76.12 19.2101 75.5437 19.8344 74.8233 20.1706C74.1029 20.5548 73.2865 20.6988 72.278 20.6988C71.7497 20.6988 71.2214 20.6028 70.6931 20.4587C70.1649 20.3146 69.7326 20.0745 69.3484 19.7864C68.9642 19.4982 68.6281 19.114 68.3879 18.6338C68.1478 18.2015 68.0518 17.6733 68.0518 17.0489C68.0518 16.0404 68.2919 15.272 68.8201 14.6957C69.3484 14.1194 69.9728 13.6872 70.7892 13.399C71.5576 13.1109 72.422 12.9188 73.2865 12.8707C74.199 12.8227 75.0154 12.7747 75.7358 12.7747H76.6002ZM75.6877 14.1674C75.2555 14.1674 74.6792 14.1674 74.0549 14.2154C73.3826 14.2635 72.7582 14.3595 72.1339 14.5516C71.5096 14.6957 70.9813 14.9838 70.5491 15.32C70.1168 15.6562 69.8767 16.1365 69.8767 16.7608C69.8767 17.145 69.9728 17.5292 70.1168 17.8173C70.2609 18.1055 70.501 18.3456 70.7892 18.5377C71.0774 18.7298 71.3655 18.8739 71.7497 18.9219C72.0859 19.018 72.422 19.018 72.8062 19.018C73.4306 19.018 74.0069 18.9219 74.4391 18.6818C74.9194 18.4897 75.3036 18.2015 75.6397 17.8173C75.9759 17.4331 76.168 17.0489 76.3601 16.5687C76.5042 16.0884 76.6002 15.5601 76.6002 15.0319V14.1194H75.6877V14.1674Z" fill="#3A739D"/>
<path d="M84.5243 20.3627H82.7954V0.336182H84.5243V20.3627Z" fill="#3A739D"/>
<path d="M108.633 14.1675C108.633 15.08 108.489 15.9444 108.153 16.7609C107.817 17.5773 107.384 18.2496 106.808 18.8259C106.232 19.4022 105.511 19.8825 104.743 20.1706C103.926 20.5068 103.062 20.6509 102.101 20.6509C101.141 20.6509 100.277 20.5068 99.4601 20.1706C98.6437 19.8345 97.9713 19.4022 97.395 18.8259C96.8187 18.2496 96.3385 17.5773 96.0503 16.7609C95.7141 15.9444 95.5701 15.08 95.5701 14.1675C95.5701 13.255 95.7141 12.3906 96.0503 11.5741C96.3865 10.7577 96.8187 10.0853 97.395 9.50904C97.9713 8.93274 98.6917 8.45249 99.4601 8.16433C100.229 7.87618 101.141 7.68408 102.101 7.68408C103.062 7.68408 103.974 7.82816 104.743 8.16433C105.559 8.50051 106.232 8.93274 106.808 9.50904C107.384 10.0853 107.865 10.7577 108.153 11.5741C108.441 12.3425 108.633 13.207 108.633 14.1675ZM106.712 14.1675C106.712 13.4951 106.616 12.8228 106.376 12.2465C106.136 11.6702 105.847 11.1419 105.415 10.6616C105.031 10.2294 104.503 9.89324 103.926 9.60509C103.35 9.36496 102.726 9.22089 101.957 9.22089C101.189 9.22089 100.565 9.36496 99.9884 9.60509C99.4121 9.84522 98.9318 10.2294 98.5476 10.6616C98.1634 11.0939 97.8272 11.6221 97.6351 12.2465C97.395 12.8228 97.299 13.4951 97.299 14.1675C97.299 14.8398 97.395 15.5122 97.6351 16.0885C97.8753 16.6648 98.1634 17.1931 98.5476 17.6733C98.9318 18.1056 99.4121 18.4417 99.9884 18.7299C100.565 18.97 101.189 19.1141 101.957 19.1141C102.726 19.1141 103.35 18.97 103.926 18.7299C104.503 18.4898 104.983 18.1056 105.415 17.6733C105.799 17.2411 106.136 16.7128 106.376 16.0885C106.616 15.5122 106.712 14.8398 106.712 14.1675Z" fill="#3A739D"/>
<path d="M117.566 9.55702H114.636V20.3627H112.907V9.55702H110.266V7.97219H112.907V4.5624C112.907 2.92954 113.291 1.72891 114.06 1.05656C114.828 0.336179 115.837 0 117.085 0C117.326 0 117.566 2.93051e-06 117.854 0.0480281C118.094 0.0960534 118.382 0.144076 118.622 0.192102L118.286 1.77694C118.094 1.72891 117.854 1.68088 117.614 1.63286C117.374 1.58483 117.133 1.58483 116.941 1.58483C116.461 1.58483 116.077 1.68088 115.789 1.82496C115.501 1.96904 115.261 2.20916 115.116 2.49731C114.972 2.78546 114.828 3.12164 114.78 3.50584C114.732 3.89004 114.684 4.32227 114.684 4.7545V7.92416H117.614V9.55702H117.566Z" fill="#3A739D"/>
<path d="M132.069 20.3627H130.148V3.36177H123.857V1.58484H138.313V3.31375H132.069V20.3627Z" fill="#3A739D"/>
<path d="M138.889 14.6477C138.937 15.2721 139.081 15.8484 139.321 16.3766C139.561 16.9049 139.897 17.3852 140.281 17.7694C140.666 18.1536 141.146 18.4898 141.674 18.7299C142.203 18.97 142.779 19.0661 143.403 19.0661C144.316 19.0661 145.132 18.8259 145.804 18.3937C146.477 17.9615 147.005 17.4812 147.341 16.9049L148.686 18.0095C147.966 18.922 147.149 19.5943 146.237 20.0266C145.324 20.4108 144.364 20.6509 143.355 20.6509C142.443 20.6509 141.578 20.5068 140.81 20.1706C140.041 19.8345 139.369 19.4022 138.793 18.8259C138.216 18.2496 137.784 17.5773 137.448 16.7609C137.112 15.9444 136.968 15.08 136.968 14.1675C136.968 13.255 137.112 12.3906 137.448 11.5741C137.784 10.7577 138.216 10.0853 138.793 9.50904C139.369 8.93274 140.041 8.45249 140.762 8.16433C141.482 7.87618 142.347 7.68408 143.211 7.68408C144.124 7.68408 144.988 7.82816 145.708 8.16433C146.429 8.50051 147.053 8.93274 147.581 9.50904C148.062 10.0853 148.446 10.7097 148.734 11.4781C149.022 12.2465 149.118 13.0149 149.118 13.8793V14.6958H138.889V14.6477ZM147.293 13.207C147.293 12.0064 146.957 11.0458 146.237 10.3255C145.516 9.60509 144.556 9.22089 143.259 9.22089C142.683 9.22089 142.155 9.31694 141.626 9.55707C141.098 9.7972 140.618 10.0853 140.233 10.4215C139.849 10.8057 139.513 11.2379 139.273 11.6702C139.033 12.1024 138.937 12.6307 138.937 13.159H147.293V13.207Z" fill="#3A739D"/>
<path d="M161.413 10.8537C161.125 10.3735 160.692 9.98929 160.164 9.70114C159.636 9.36496 159.012 9.22089 158.339 9.22089C157.619 9.22089 156.946 9.31694 156.37 9.55707C155.794 9.7972 155.314 10.1334 154.881 10.5656C154.497 10.9978 154.161 11.5261 153.969 12.1504C153.777 12.7748 153.633 13.3991 153.633 14.1195C153.633 14.8398 153.729 15.4642 153.969 16.0885C154.161 16.7128 154.497 17.2411 154.881 17.6733C155.266 18.1056 155.794 18.4417 156.37 18.7299C156.946 19.018 157.571 19.1141 158.339 19.0661C159.012 19.0661 159.636 18.922 160.164 18.5858C160.692 18.2496 161.125 17.8654 161.413 17.4332L162.854 18.5378C162.229 19.2582 161.557 19.7864 160.74 20.1226C159.972 20.4588 159.156 20.6509 158.291 20.6509C157.283 20.6509 156.37 20.5068 155.554 20.1706C154.737 19.8345 154.065 19.4022 153.489 18.8259C152.912 18.2496 152.48 17.5293 152.192 16.7609C151.904 15.9444 151.76 15.08 151.76 14.1675C151.76 13.255 151.904 12.3425 152.192 11.5741C152.48 10.7577 152.912 10.0853 153.489 9.50904C154.065 8.93274 154.737 8.45249 155.554 8.16433C156.37 7.82816 157.283 7.68408 158.291 7.68408C159.156 7.68408 159.972 7.87619 160.74 8.21236C161.509 8.54854 162.229 9.07682 162.854 9.7972L161.413 10.8537Z" fill="#3A739D"/>
<path d="M165.159 0.336182H166.888V9.94122H166.936C167.128 9.60504 167.368 9.3169 167.656 9.02874C167.944 8.74059 168.28 8.50047 168.665 8.30837C169.049 8.11627 169.433 7.92416 169.865 7.82811C170.297 7.73206 170.682 7.63601 171.114 7.63601C172.699 7.63601 173.899 8.06824 174.62 8.88467C175.388 9.7011 175.772 10.9017 175.772 12.4866V20.3627H174.043V13.4951C174.043 12.1024 173.803 11.0458 173.323 10.3254C172.843 9.60505 171.978 9.22084 170.682 9.22084C170.586 9.22084 170.345 9.26887 169.961 9.3169C169.577 9.36492 169.145 9.60505 168.665 9.8932C168.232 10.2294 167.8 10.7096 167.464 11.334C167.128 11.9583 166.936 12.8708 166.936 13.9753V20.3147H165.207V0.336182H165.159Z" fill="#3A739D"/>
<path d="M181.535 7.97224C181.583 8.30841 181.583 8.64458 181.583 8.98076C181.583 9.31694 181.583 9.65312 181.583 9.98929H181.631C181.823 9.65312 182.063 9.36497 182.352 9.07682C182.64 8.78867 182.976 8.54854 183.36 8.35644C183.744 8.16434 184.129 7.97224 184.561 7.87619C184.993 7.78014 185.377 7.68408 185.809 7.68408C187.394 7.68408 188.595 8.11631 189.315 8.93274C190.036 9.74917 190.468 10.9498 190.468 12.5346V20.4108H188.739V13.5432C188.739 12.1504 188.499 11.0939 188.019 10.3735C187.538 9.65312 186.674 9.26892 185.377 9.26892C185.281 9.26892 185.041 9.31694 184.657 9.36496C184.273 9.41299 183.84 9.65311 183.36 9.94127C182.928 10.2774 182.496 10.7577 182.16 11.382C181.823 12.0064 181.631 12.9188 181.631 14.0234V20.3627H179.902V10.7097C179.902 10.3735 179.902 9.94127 179.854 9.46101C179.806 8.93274 179.806 8.45248 179.758 8.02026H181.535V7.97224Z" fill="#3A739D"/>
<path d="M207.085 14.1675C207.085 15.08 206.941 15.9444 206.605 16.7609C206.268 17.5773 205.836 18.2496 205.26 18.8259C204.684 19.4022 203.963 19.8825 203.195 20.1706C202.378 20.5068 201.514 20.6509 200.553 20.6509C199.593 20.6509 198.728 20.5068 197.912 20.1706C197.096 19.8345 196.423 19.4022 195.847 18.8259C195.271 18.2496 194.79 17.5773 194.502 16.7609C194.166 15.9444 194.022 15.08 194.022 14.1675C194.022 13.255 194.166 12.3906 194.502 11.5741C194.838 10.7577 195.271 10.0853 195.847 9.50904C196.423 8.93274 197.144 8.45249 197.912 8.16433C198.728 7.82816 199.593 7.68408 200.553 7.68408C201.514 7.68408 202.426 7.82816 203.195 8.16433C204.011 8.50051 204.684 8.93274 205.26 9.50904C205.836 10.0853 206.316 10.7577 206.605 11.5741C206.941 12.3425 207.085 13.207 207.085 14.1675ZM205.212 14.1675C205.212 13.4951 205.116 12.8228 204.876 12.2465C204.636 11.6702 204.347 11.1419 203.915 10.6616C203.531 10.2294 203.003 9.89324 202.426 9.60509C201.85 9.36496 201.226 9.22089 200.457 9.22089C199.689 9.22089 199.065 9.36496 198.488 9.60509C197.912 9.84522 197.432 10.2294 197.048 10.6616C196.663 11.0939 196.327 11.6221 196.135 12.2465C195.895 12.8228 195.799 13.4951 195.799 14.1675C195.799 14.8398 195.895 15.5122 196.135 16.0885C196.375 16.6648 196.663 17.1931 197.048 17.6733C197.432 18.1056 197.912 18.4417 198.488 18.7299C199.065 18.97 199.689 19.1141 200.457 19.1141C201.226 19.1141 201.85 18.97 202.426 18.7299C203.003 18.4898 203.483 18.1056 203.915 17.6733C204.299 17.2411 204.636 16.7128 204.876 16.0885C205.068 15.5122 205.212 14.8398 205.212 14.1675Z" fill="#3A739D"/>
<path d="M212.415 20.3627H210.687V0.336182H212.415V20.3627Z" fill="#3A739D"/>
<path d="M229.176 14.1675C229.176 15.08 229.032 15.9444 228.696 16.7609C228.36 17.5773 227.928 18.2496 227.351 18.8259C226.775 19.4022 226.055 19.8825 225.286 20.1706C224.47 20.5068 223.605 20.6509 222.645 20.6509C221.684 20.6509 220.82 20.5068 220.004 20.1706C219.187 19.8345 218.515 19.4022 217.939 18.8259C217.362 18.2496 216.882 17.5773 216.594 16.7609C216.258 15.9444 216.114 15.08 216.114 14.1675C216.114 13.255 216.258 12.3906 216.594 11.5741C216.93 10.7577 217.362 10.0853 217.939 9.50904C218.515 8.93274 219.235 8.45249 220.004 8.16433C220.82 7.82816 221.684 7.68408 222.645 7.68408C223.605 7.68408 224.518 7.82816 225.286 8.16433C226.103 8.50051 226.775 8.93274 227.351 9.50904C227.928 10.0853 228.408 10.7577 228.696 11.5741C228.984 12.3425 229.176 13.207 229.176 14.1675ZM227.255 14.1675C227.255 13.4951 227.159 12.8228 226.919 12.2465C226.679 11.6702 226.391 11.1419 225.959 10.6616C225.574 10.2294 225.046 9.89324 224.47 9.60509C223.894 9.36496 223.269 9.22089 222.501 9.22089C221.732 9.22089 221.108 9.36496 220.532 9.60509C219.956 9.84522 219.475 10.2294 219.091 10.6616C218.707 11.0939 218.371 11.6221 218.179 12.2465C217.939 12.8228 217.842 13.4951 217.842 14.1675C217.842 14.8398 217.939 15.5122 218.179 16.0885C218.419 16.6648 218.707 17.1931 219.091 17.6733C219.475 18.1056 219.956 18.4417 220.532 18.7299C221.108 18.97 221.732 19.1141 222.501 19.1141C223.269 19.1141 223.894 18.97 224.47 18.7299C225.046 18.4898 225.526 18.1056 225.959 17.6733C226.343 17.2411 226.679 16.7128 226.919 16.0885C227.159 15.5122 227.255 14.8398 227.255 14.1675Z" fill="#3A739D"/>
<path d="M233.307 22.86C233.835 23.5324 234.507 24.1087 235.324 24.4929C236.14 24.9251 237.052 25.1172 238.061 25.1172C238.925 25.1172 239.694 24.9731 240.318 24.733C240.943 24.4929 241.423 24.1087 241.807 23.6764C242.191 23.2442 242.479 22.7159 242.623 22.1396C242.767 21.5633 242.864 20.939 242.864 20.2666V18.0575H242.815C242.239 18.9219 241.567 19.4982 240.75 19.8344C239.934 20.1706 239.07 20.3627 238.205 20.3627C237.293 20.3627 236.476 20.2186 235.66 19.8824C234.891 19.5463 234.171 19.114 233.595 18.5857C233.018 18.0094 232.538 17.3851 232.202 16.5687C231.866 15.8003 231.722 14.9358 231.722 14.0714C231.722 13.1589 231.866 12.3425 232.202 11.5741C232.538 10.8057 232.97 10.1333 233.499 9.55702C234.075 8.98071 234.699 8.50046 235.468 8.21231C236.236 7.92416 237.1 7.73206 238.013 7.73206C238.397 7.73206 238.781 7.78008 239.214 7.8281C239.646 7.87613 240.03 8.02021 240.462 8.21231C240.894 8.40441 241.279 8.64453 241.711 8.93269C242.095 9.22084 242.479 9.65306 242.864 10.1333H242.912V8.06823H244.64V20.3627C244.64 21.035 244.544 21.7554 244.4 22.5238C244.256 23.2922 243.92 23.9646 243.44 24.6369C242.96 25.2613 242.287 25.7895 241.423 26.2218C240.558 26.654 239.406 26.8461 238.013 26.8461C236.764 26.8461 235.66 26.654 234.699 26.2218C233.739 25.8376 232.826 25.2132 232.058 24.3488L233.307 22.86ZM233.595 13.9753C233.595 14.6477 233.691 15.224 233.931 15.8003C234.171 16.3766 234.507 16.8568 234.891 17.2891C235.324 17.7213 235.804 18.0575 236.332 18.3456C236.908 18.5857 237.485 18.7298 238.157 18.7298C238.781 18.7298 239.406 18.6338 239.982 18.3937C240.558 18.1535 241.087 17.8654 241.519 17.4331C241.951 17.0009 242.287 16.5207 242.527 15.9444C242.767 15.3681 242.864 14.6957 242.864 13.9753C242.864 13.303 242.767 12.7267 242.527 12.1504C242.335 11.5741 241.999 11.0938 241.615 10.6616C241.231 10.2294 240.702 9.89319 240.126 9.65306C239.55 9.41294 238.877 9.26886 238.157 9.26886C237.485 9.26886 236.908 9.41294 236.332 9.65306C235.756 9.89319 235.276 10.2294 234.891 10.6616C234.459 11.0938 234.171 11.5741 233.931 12.1504C233.691 12.7267 233.595 13.351 233.595 13.9753Z" fill="#3A739D"/>
<path d="M253.093 18.2015L256.887 7.97217H259L252.805 23.5804C252.42 24.5409 251.94 25.3093 251.412 25.8375C250.836 26.4138 250.019 26.702 248.915 26.702C248.627 26.702 248.386 26.702 248.098 26.654C247.81 26.654 247.57 26.6059 247.282 26.5099L247.474 24.829C247.858 25.0211 248.29 25.1172 248.819 25.1172C249.443 25.1172 249.923 24.9251 250.259 24.5409C250.596 24.1567 250.932 23.6284 251.172 22.908L252.084 20.5067L246.994 7.97217H249.203L253.093 18.2015Z" fill="#3A739D"/>
<path d="M5.23484 28.9592C5.23484 29.3434 5.09075 29.6796 4.8026 29.9197C4.51445 30.1598 4.22629 30.3039 3.89011 30.3039C3.55393 30.3039 3.2658 30.1598 2.97765 29.9197C2.6895 29.6796 2.54541 29.3434 2.54541 28.9592C2.54541 28.575 2.6895 28.2388 2.97765 27.9987C3.2658 27.7586 3.55393 27.6145 3.89011 27.6145C4.22629 27.6145 4.51445 27.7586 4.8026 27.9987C5.09075 28.2388 5.23484 28.575 5.23484 28.9592ZM4.85061 46.8726H3.02566V33.9538H4.85061V46.8726Z" fill="#3A739D"/>
<path d="M10.9499 33.9539C10.9979 34.2901 10.9979 34.6263 10.9979 35.0105C10.9979 35.3467 10.9979 35.6828 10.9979 36.067H11.0459C11.238 35.7309 11.5262 35.3947 11.8143 35.1065C12.1505 34.8184 12.4867 34.5782 12.8709 34.3381C13.2551 34.146 13.6873 33.9539 14.1196 33.8579C14.5518 33.7618 14.984 33.6658 15.4162 33.6658C17.0491 33.6658 18.2977 34.098 19.0661 34.9625C19.8345 35.8269 20.2668 37.0756 20.2668 38.7084V46.9207H18.4418V39.765C18.4418 38.3242 18.2017 37.2196 17.6734 36.4512C17.1931 35.6828 16.2326 35.2986 14.936 35.2986C14.8399 35.2986 14.5998 35.3466 14.1676 35.3947C13.7353 35.4907 13.3031 35.6828 12.8229 36.019C12.3426 36.3552 11.9584 36.8354 11.5742 37.5078C11.19 38.1801 11.0459 39.0926 11.0459 40.2452V46.8727H9.22097V36.7874C9.22097 36.4512 9.22096 36.019 9.17293 35.4427C9.12491 34.9144 9.12493 34.3861 9.0769 33.9059H10.9499V33.9539Z" fill="#3A739D"/>
<path d="M31.7927 27.3264H37.6038C38.4202 27.3264 39.1886 27.4225 39.957 27.5665C40.7254 27.7106 41.3978 27.9988 41.9741 28.383C42.5504 28.7672 43.0306 29.2954 43.3668 29.9198C43.703 30.5441 43.8951 31.3125 43.8951 32.225C43.8951 33.2815 43.6069 34.194 42.9826 34.9624C42.4063 35.7308 41.5418 36.2591 40.4373 36.4992V36.5473C41.83 36.6433 42.8865 37.1236 43.703 37.988C44.4714 38.8525 44.8556 40.0051 44.8556 41.4458C44.8556 41.782 44.7595 42.2142 44.6155 42.8386C44.4714 43.4629 44.1352 44.0392 43.655 44.6635C43.1747 45.2878 42.4543 45.7681 41.4938 46.2003C40.5333 46.6325 39.2846 46.8727 37.7478 46.8727H31.7927V27.3264ZM33.8098 35.8749H37.7959C38.2761 35.8749 38.7564 35.8269 39.2366 35.6828C39.7169 35.5868 40.1491 35.3466 40.4853 35.1065C40.8695 34.8183 41.1576 34.4822 41.3978 34.0499C41.6379 33.6177 41.7339 33.0894 41.7339 32.4651C41.7339 32.273 41.6859 31.9849 41.5899 31.6007C41.4938 31.2165 41.3017 30.8803 41.0616 30.4961C40.7734 30.1119 40.3412 29.8237 39.8129 29.5356C39.2847 29.2474 38.5163 29.1514 37.5558 29.1514H33.7617V35.8749H33.8098ZM33.8098 45.0477H37.6038C38.3241 45.0477 38.9965 44.9517 39.6208 44.8076C40.2452 44.6635 40.7734 44.4234 41.2537 44.1352C41.7339 43.8471 42.0701 43.4629 42.3583 42.9826C42.6464 42.5024 42.7425 41.9741 42.7425 41.3498C42.7425 40.0531 42.3103 39.0926 41.4938 38.4683C40.6774 37.8439 39.4287 37.5078 37.8439 37.5078H33.8098V45.0477Z" fill="#3A739D"/>
<path d="M49.8021 40.8695C49.8501 41.4938 49.9942 42.1181 50.2824 42.6944C50.5225 43.2707 50.8587 43.751 51.2909 44.1832C51.7231 44.6154 52.2034 44.9036 52.7316 45.1437C53.2599 45.3838 53.8842 45.4799 54.5086 45.4799C55.4691 45.4799 56.3335 45.2398 57.0539 44.8075C57.7743 44.3753 58.3026 43.847 58.6868 43.2707L60.0795 44.4233C59.3111 45.3838 58.4466 46.1042 57.5342 46.5364C56.6217 46.9687 55.6131 47.1608 54.5566 47.1608C53.5961 47.1608 52.7316 46.9687 51.9152 46.6325C51.0988 46.2963 50.3784 45.8161 49.8021 45.1917C49.2258 44.5674 48.7455 43.847 48.4094 43.0306C48.0732 42.2142 47.8811 41.3017 47.8811 40.3412C47.8811 39.3807 48.0252 38.4682 48.3614 37.6518C48.6975 36.8353 49.1297 36.115 49.7541 35.4906C50.3304 34.8663 51.0508 34.3861 51.8192 34.0499C52.5876 33.7137 53.452 33.5216 54.3645 33.5216C55.325 33.5216 56.2375 33.7137 57.0059 34.0499C57.7743 34.3861 58.4466 34.8663 58.9749 35.4426C59.5032 36.0189 59.8874 36.6913 60.1755 37.5077C60.4637 38.3241 60.6078 39.1406 60.6078 40.005V40.8214H49.8021V40.8695ZM58.5907 39.3807C58.5907 38.132 58.2065 37.1715 57.4861 36.4031C56.7658 35.6347 55.7092 35.2505 54.4125 35.2505C53.8362 35.2505 53.2599 35.3466 52.6836 35.5867C52.1553 35.8268 51.6271 36.115 51.2429 36.4992C50.8587 36.8834 50.4744 37.3156 50.2343 37.8439C49.9942 38.3241 49.8501 38.8524 49.8501 39.3807H58.5907Z" fill="#3A739D"/>
<path d="M63.8735 25.9817H65.6985V36.019H65.7465C65.9386 35.6828 66.2268 35.3466 66.5149 35.0585C66.8511 34.7703 67.1873 34.5302 67.5715 34.2901C67.9557 34.098 68.3879 33.9059 68.8201 33.8098C69.2524 33.7138 69.6846 33.6177 70.1168 33.6177C71.7497 33.6177 72.9983 34.0499 73.7667 34.9144C74.5351 35.7788 74.9673 37.0275 74.9673 38.6603V46.8727H73.1424V39.7169C73.1424 38.2761 72.9023 37.1716 72.374 36.4032C71.8938 35.6348 70.9332 35.2506 69.6366 35.2506C69.5405 35.2506 69.3004 35.2986 68.8682 35.3466C68.4359 35.4427 68.0037 35.6348 67.5234 35.9709C67.0432 36.3071 66.659 36.7874 66.2748 37.4597C65.8906 38.1321 65.7465 39.0445 65.7465 40.1971V46.8246H63.8735V25.9817Z" fill="#3A739D"/>
<path d="M87.502 38.9485V38.6123C87.502 36.4031 86.3974 35.2505 84.1882 35.2505C82.6994 35.2505 81.3547 35.7788 80.2501 36.7873L79.1456 35.4907C80.3462 34.242 82.1712 33.6177 84.6204 33.6177C85.2448 33.6177 85.8691 33.7137 86.4454 33.9058C87.0217 34.0979 87.55 34.3861 87.9342 34.7703C88.3664 35.1545 88.7026 35.6347 88.9427 36.211C89.1828 36.7873 89.3269 37.4597 89.3269 38.2761V44.0391C89.3269 44.5194 89.3269 45.0477 89.3749 45.576C89.423 46.1042 89.471 46.5845 89.519 46.9207H87.7421C87.6941 46.5845 87.646 46.2483 87.598 45.9121C87.55 45.5279 87.55 45.1918 87.55 44.8556H87.502C86.9737 45.72 86.3493 46.3444 85.629 46.7286C84.9086 47.1128 83.9961 47.3049 82.9876 47.3049C82.4113 47.3049 81.883 47.2088 81.3547 47.0647C80.8265 46.9207 80.3462 46.6805 79.914 46.3444C79.4818 46.0082 79.1456 45.624 78.9054 45.1437C78.6653 44.6635 78.5212 44.1352 78.5212 43.5109C78.5212 42.4543 78.8094 41.6379 79.3377 41.0616C79.866 40.4853 80.5383 40.005 81.4028 39.7169C82.2192 39.4287 83.0836 39.2366 84.0441 39.1886C84.9566 39.0926 85.8211 39.0926 86.5895 39.0926H87.502V38.9485ZM86.5895 40.4373C86.1092 40.4373 85.5329 40.4373 84.8606 40.4853C84.1882 40.5333 83.5159 40.6294 82.8915 40.8215C82.2672 41.0136 81.6909 41.2537 81.2587 41.6379C80.8265 42.0221 80.5863 42.5023 80.5863 43.1747C80.5863 43.6069 80.6824 43.9431 80.8264 44.2793C81.0185 44.5674 81.2587 44.8076 81.5468 45.0477C81.835 45.2878 82.1712 45.3839 82.5073 45.4799C82.8435 45.576 83.2277 45.624 83.6119 45.624C84.2843 45.624 84.8606 45.5279 85.3408 45.2878C85.8211 45.0477 86.2533 44.7595 86.5895 44.3753C86.9256 43.9911 87.1658 43.5589 87.3098 43.0306C87.4539 42.5023 87.55 41.9741 87.55 41.3978V40.4373H86.5895Z" fill="#3A739D"/>
<path d="M99.2681 46.8726H97.203L91.9683 33.9539H94.1294L98.2596 44.8076H98.3076L102.438 33.9539H104.503L99.2681 46.8726Z" fill="#3A739D"/>
<path d="M109.498 28.9592C109.498 29.3434 109.353 29.6796 109.065 29.9197C108.777 30.1598 108.489 30.3039 108.153 30.3039C107.817 30.3039 107.528 30.1598 107.24 29.9197C106.952 29.6796 106.808 29.3434 106.808 28.9592C106.808 28.575 106.952 28.2388 107.24 27.9987C107.528 27.7586 107.817 27.6145 108.153 27.6145C108.489 27.6145 108.777 27.7586 109.065 27.9987C109.353 28.2388 109.498 28.575 109.498 28.9592ZM109.113 46.8726H107.288V33.9538H109.113V46.8726Z" fill="#3A739D"/>
<path d="M126.546 40.3893C126.546 41.3498 126.354 42.2623 126.018 43.0787C125.682 43.8951 125.202 44.6155 124.577 45.2398C123.953 45.8642 123.233 46.3444 122.416 46.6806C121.6 47.0168 120.639 47.2089 119.631 47.2089C118.622 47.2089 117.71 47.0168 116.893 46.6806C116.077 46.3444 115.357 45.8642 114.732 45.2398C114.108 44.6155 113.628 43.8951 113.291 43.0787C112.955 42.2623 112.763 41.3498 112.763 40.3893C112.763 39.4288 112.955 38.5163 113.291 37.6999C113.628 36.8834 114.108 36.1631 114.732 35.5387C115.357 34.9144 116.077 34.4342 116.893 34.098C117.71 33.7618 118.622 33.5697 119.631 33.5697C120.639 33.5697 121.552 33.7618 122.416 34.098C123.233 34.4342 123.953 34.9144 124.577 35.5387C125.202 36.1631 125.682 36.8834 126.018 37.6999C126.354 38.5163 126.546 39.4288 126.546 40.3893ZM124.577 40.3893C124.577 39.6689 124.481 38.9966 124.241 38.3722C124.001 37.7479 123.665 37.2196 123.281 36.7394C122.848 36.2591 122.368 35.9229 121.744 35.6348C121.168 35.3466 120.447 35.2506 119.727 35.2506C118.958 35.2506 118.286 35.3947 117.71 35.6348C117.133 35.9229 116.605 36.2591 116.173 36.7394C115.741 37.2196 115.453 37.7479 115.212 38.3722C114.972 38.9966 114.876 39.6689 114.876 40.3893C114.876 41.1097 114.972 41.782 115.212 42.4063C115.453 43.0307 115.789 43.5589 116.173 44.0392C116.605 44.5194 117.085 44.8556 117.71 45.1438C118.286 45.4319 119.006 45.528 119.727 45.528C120.495 45.528 121.168 45.3839 121.744 45.1438C122.32 44.8556 122.848 44.5194 123.281 44.0392C123.713 43.5589 124.049 43.0307 124.241 42.4063C124.433 41.782 124.577 41.1097 124.577 40.3893Z" fill="#3A739D"/>
<path d="M130.052 37.988C130.052 37.4117 130.052 36.8354 130.004 36.2591C129.956 35.6828 129.956 34.9144 129.956 33.9539H131.733V36.3551H131.781C131.925 36.0189 132.117 35.6828 132.31 35.3466C132.55 35.0104 132.838 34.7223 133.174 34.4821C133.51 34.242 133.894 34.0019 134.375 33.8578C134.855 33.7137 135.335 33.6177 135.911 33.6177C136.44 33.6177 136.872 33.6657 137.256 33.7618L136.92 35.5387C136.68 35.4426 136.344 35.3946 135.863 35.3946C135.143 35.3946 134.567 35.5387 134.086 35.7788C133.606 36.067 133.174 36.4031 132.838 36.7873C132.502 37.2196 132.262 37.6518 132.117 38.1321C131.973 38.6123 131.877 39.0926 131.877 39.5248V46.8246H130.052V37.988Z" fill="#3A739D"/>
<path d="M147.293 38.9485V38.6123C147.293 36.4031 146.189 35.2505 143.979 35.2505C142.491 35.2505 141.146 35.7788 140.041 36.7873L138.937 35.4907C140.137 34.242 141.962 33.6177 144.412 33.6177C145.036 33.6177 145.66 33.7137 146.237 33.9058C146.813 34.0979 147.341 34.3861 147.725 34.7703C148.158 35.1545 148.494 35.6347 148.734 36.211C148.974 36.7873 149.118 37.4597 149.118 38.2761V44.0391C149.118 44.5194 149.118 45.0477 149.166 45.576C149.214 46.1042 149.262 46.5845 149.31 46.9207H147.533C147.485 46.5845 147.437 46.2483 147.389 45.9121C147.341 45.5279 147.341 45.1918 147.341 44.8556H147.293C146.765 45.72 146.141 46.3444 145.42 46.7286C144.7 47.1128 143.787 47.3049 142.779 47.3049C142.203 47.3049 141.674 47.2088 141.146 47.0647C140.618 46.9207 140.137 46.6805 139.705 46.3444C139.273 46.0082 138.937 45.624 138.697 45.1437C138.457 44.6635 138.312 44.1352 138.312 43.5109C138.312 42.4543 138.601 41.6379 139.129 41.0616C139.657 40.4853 140.33 40.005 141.194 39.7169C142.01 39.4287 142.875 39.2366 143.835 39.1886C144.748 39.0926 145.612 39.0926 146.381 39.0926H147.293V38.9485ZM146.381 40.4373C145.9 40.4373 145.324 40.4373 144.652 40.4853C143.979 40.5333 143.307 40.6294 142.683 40.8215C142.058 41.0136 141.482 41.2537 141.05 41.6379C140.618 42.0221 140.378 42.5023 140.378 43.1747C140.378 43.6069 140.474 43.9431 140.618 44.2793C140.81 44.5674 141.05 44.8076 141.338 45.0477C141.626 45.2878 141.962 45.3839 142.299 45.4799C142.635 45.576 143.019 45.624 143.403 45.624C144.076 45.624 144.652 45.5279 145.132 45.2878C145.612 45.0477 146.045 44.7595 146.381 44.3753C146.717 43.9911 146.957 43.5589 147.101 43.0306C147.245 42.5023 147.341 41.9741 147.341 41.3978V40.4373H146.381Z" fill="#3A739D"/>
<path d="M155.602 46.8727H153.777V25.9817H155.602V46.8727Z" fill="#3A739D"/>
<path d="M177.549 30.5441C176.685 29.2954 175.436 28.6231 173.755 28.6231C173.227 28.6231 172.747 28.6711 172.219 28.8152C171.738 28.9592 171.258 29.1514 170.874 29.4395C170.49 29.7277 170.153 30.1119 169.913 30.5441C169.673 30.9763 169.577 31.5046 169.577 32.1289C169.577 32.9934 169.817 33.7137 170.346 34.194C170.826 34.6742 171.45 35.0584 172.219 35.3946C172.939 35.7308 173.755 35.9709 174.62 36.2591C175.484 36.4992 176.301 36.8354 177.021 37.2676C177.741 37.6998 178.366 38.2281 178.894 38.9005C179.422 39.5728 179.662 40.5333 179.662 41.6859C179.662 42.5504 179.47 43.3668 179.086 44.0872C178.702 44.8076 178.222 45.3839 177.597 45.8641C176.973 46.3444 176.301 46.7286 175.532 46.9687C174.764 47.2088 173.995 47.3529 173.227 47.3529C172.026 47.3529 170.874 47.1128 169.817 46.6806C168.761 46.2483 167.848 45.4799 167.08 44.4714L168.905 43.1747C169.337 43.8951 169.913 44.4714 170.682 44.9036C171.45 45.3358 172.315 45.576 173.371 45.576C173.851 45.576 174.38 45.4799 174.86 45.3359C175.34 45.1918 175.82 44.9516 176.205 44.6635C176.589 44.3753 176.925 43.9911 177.165 43.5589C177.405 43.1267 177.549 42.5984 177.549 42.0221C177.549 41.3498 177.405 40.7735 177.117 40.3412C176.829 39.909 176.445 39.5248 175.964 39.1886C175.484 38.9005 174.956 38.6123 174.38 38.4202C173.803 38.2281 173.179 38.036 172.507 37.7959C171.882 37.6038 171.258 37.3637 170.634 37.1235C170.057 36.8834 169.481 36.5472 169.049 36.163C168.569 35.7788 168.184 35.2506 167.896 34.6742C167.608 34.0979 167.464 33.3295 167.464 32.4171C167.464 31.4566 167.656 30.6401 167.992 29.9678C168.328 29.2474 168.809 28.6711 169.433 28.2389C170.009 27.7586 170.73 27.4224 171.45 27.2303C172.219 26.9902 172.987 26.8942 173.755 26.8942C174.86 26.8942 175.868 27.0863 176.781 27.4224C177.693 27.7586 178.51 28.3829 179.278 29.2954L177.549 30.5441Z" fill="#3A739D"/>
<path d="M192.437 36.9795C192.101 36.4992 191.669 36.115 191.14 35.7789C190.564 35.4427 189.94 35.2986 189.219 35.2986C188.451 35.2986 187.779 35.3947 187.202 35.6348C186.626 35.8749 186.098 36.2591 185.666 36.6913C185.233 37.1716 184.897 37.6999 184.705 38.3242C184.465 38.9485 184.369 39.6689 184.369 40.3893C184.369 41.1097 184.465 41.83 184.705 42.4544C184.945 43.0787 185.233 43.655 185.666 44.0872C186.098 44.5675 186.578 44.9036 187.202 45.1438C187.779 45.3839 188.499 45.528 189.219 45.4799C189.94 45.4799 190.564 45.3359 191.14 44.9997C191.717 44.6635 192.149 44.2793 192.437 43.7991L193.926 44.9517C193.302 45.7201 192.533 46.2484 191.765 46.6326C190.948 46.9687 190.132 47.1608 189.219 47.2089C188.163 47.2089 187.202 47.0648 186.386 46.7286C185.522 46.3924 184.801 45.9122 184.225 45.2879C183.649 44.6635 183.168 43.9431 182.88 43.1267C182.544 42.3103 182.4 41.3978 182.4 40.3893C182.4 39.4288 182.544 38.5163 182.88 37.6518C183.216 36.8354 183.649 36.115 184.225 35.4907C184.801 34.8664 185.522 34.3861 186.386 34.05C187.25 33.7138 188.163 33.5697 189.219 33.5697C190.084 33.5697 190.948 33.7618 191.765 34.146C192.581 34.4822 193.302 35.0585 193.926 35.8269L192.437 36.9795Z" fill="#3A739D"/>
<path d="M198.969 28.9592C198.969 29.3434 198.824 29.6796 198.536 29.9197C198.248 30.1598 197.96 30.3039 197.624 30.3039C197.288 30.3039 196.999 30.1598 196.711 29.9197C196.423 29.6796 196.279 29.3434 196.279 28.9592C196.279 28.575 196.423 28.2388 196.711 27.9987C196.999 27.7586 197.288 27.6145 197.624 27.6145C197.96 27.6145 198.248 27.7586 198.536 27.9987C198.824 28.2388 198.969 28.575 198.969 28.9592ZM198.536 46.8726H196.711V33.9538H198.536V46.8726Z" fill="#3A739D"/>
<path d="M204.203 40.8695C204.251 41.4938 204.395 42.1181 204.683 42.6944C204.924 43.2707 205.26 43.751 205.692 44.1832C206.124 44.6154 206.605 44.9036 207.133 45.1437C207.661 45.3838 208.285 45.4799 208.91 45.4799C209.87 45.4799 210.735 45.2398 211.455 44.8075C212.175 44.3753 212.704 43.847 213.088 43.2707L214.481 44.4233C213.712 45.3838 212.848 46.1042 211.935 46.5364C211.023 46.9687 210.014 47.1608 208.958 47.1608C207.997 47.1608 207.133 46.9687 206.316 46.6325C205.5 46.2963 204.78 45.8161 204.203 45.1917C203.627 44.5674 203.147 43.847 202.811 43.0306C202.474 42.2142 202.282 41.3017 202.282 40.3412C202.282 39.3807 202.426 38.4682 202.762 37.6518C203.099 36.8353 203.531 36.115 204.155 35.4906C204.732 34.8663 205.452 34.3861 206.22 34.0499C206.989 33.7137 207.853 33.5216 208.766 33.5216C209.726 33.5216 210.639 33.7137 211.407 34.0499C212.175 34.3861 212.848 34.8663 213.376 35.4426C213.904 36.0189 214.289 36.6913 214.577 37.5077C214.865 38.3241 215.009 39.1406 215.009 40.005V40.8214H204.203V40.8695ZM212.992 39.3807C212.992 38.132 212.608 37.1715 211.887 36.4031C211.167 35.6347 210.11 35.2505 208.814 35.2505C208.237 35.2505 207.661 35.3466 207.085 35.5867C206.556 35.8268 206.028 36.115 205.644 36.4992C205.26 36.8834 204.876 37.3156 204.635 37.8439C204.395 38.3722 204.251 38.8524 204.251 39.3807H212.992Z" fill="#3A739D"/>
<path d="M220.003 33.9539C220.051 34.2901 220.051 34.6263 220.051 35.0105C220.051 35.3467 220.051 35.6828 220.051 36.067H220.099C220.292 35.7309 220.58 35.3947 220.868 35.1065C221.204 34.8184 221.54 34.5782 221.924 34.3381C222.309 34.146 222.741 33.9539 223.173 33.8579C223.605 33.7618 224.038 33.6658 224.47 33.6658C226.103 33.6658 227.351 34.098 228.12 34.9625C228.888 35.8269 229.32 37.0756 229.32 38.7084V46.9207H227.495V39.765C227.495 38.3242 227.255 37.2196 226.727 36.4512C226.247 35.6828 225.286 35.2986 223.989 35.2986C223.893 35.2986 223.653 35.3466 223.221 35.3947C222.789 35.4907 222.357 35.6828 221.876 36.019C221.396 36.3552 221.012 36.8354 220.628 37.5078C220.244 38.1801 220.099 39.0926 220.099 40.2452V46.8727H218.274V36.7874C218.274 36.4512 218.274 36.019 218.226 35.4427C218.178 34.9144 218.178 34.3861 218.13 33.9059H220.003V33.9539Z" fill="#3A739D"/>
<path d="M243.056 36.9795C242.719 36.4992 242.287 36.115 241.759 35.7789C241.183 35.4427 240.558 35.2986 239.838 35.2986C239.07 35.2986 238.397 35.3947 237.821 35.6348C237.245 35.8749 236.716 36.2591 236.284 36.6913C235.852 37.1716 235.516 37.6999 235.324 38.3242C235.131 38.9485 234.987 39.6689 234.987 40.3893C234.987 41.1097 235.083 41.83 235.324 42.4544C235.564 43.0787 235.852 43.655 236.284 44.0872C236.716 44.5675 237.197 44.9036 237.821 45.1438C238.397 45.3839 239.118 45.528 239.838 45.4799C240.558 45.4799 241.183 45.3359 241.759 44.9997C242.335 44.6635 242.767 44.2793 243.056 43.7991L244.544 44.9517C243.92 45.7201 243.152 46.2484 242.383 46.6326C241.567 46.9687 240.75 47.1608 239.838 47.2089C238.781 47.2089 237.821 47.0648 237.004 46.7286C236.14 46.3924 235.42 45.9122 234.843 45.2879C234.267 44.6635 233.787 43.9431 233.499 43.1267C233.162 42.3103 233.018 41.3978 233.018 40.3893C233.018 39.4288 233.162 38.5163 233.499 37.6518C233.835 36.8354 234.267 36.115 234.843 35.4907C235.42 34.8664 236.14 34.3861 237.004 34.05C237.869 33.7138 238.781 33.5697 239.838 33.5697C240.702 33.5697 241.567 33.7618 242.383 34.146C243.2 34.5302 243.92 35.0585 244.544 35.8269L243.056 36.9795Z" fill="#3A739D"/>
<path d="M248.194 40.8695C248.242 41.4938 248.387 42.1181 248.675 42.6944C248.915 43.2707 249.251 43.751 249.683 44.1832C250.115 44.6154 250.596 44.9036 251.124 45.1437C251.652 45.3838 252.277 45.4799 252.901 45.4799C253.861 45.4799 254.726 45.2398 255.446 44.8075C256.167 44.3753 256.695 43.847 257.079 43.2707L258.472 44.4233C257.703 45.3838 256.839 46.1042 255.926 46.5364C255.014 46.9687 254.005 47.1608 252.949 47.1608C251.988 47.1608 251.124 46.9687 250.308 46.6325C249.491 46.2963 248.771 45.8161 248.194 45.1917C247.618 44.5674 247.138 43.847 246.802 43.0306C246.466 42.2142 246.273 41.3017 246.273 40.3412C246.273 39.3807 246.418 38.4682 246.754 37.6518C247.09 36.8353 247.522 36.115 248.146 35.4906C248.723 34.8663 249.443 34.3861 250.211 34.0499C250.98 33.7137 251.844 33.5216 252.757 33.5216C253.717 33.5216 254.63 33.7137 255.398 34.0499C256.167 34.3861 256.839 34.8663 257.367 35.4426C257.896 36.0189 258.28 36.6913 258.568 37.5077C258.856 38.3241 259 39.1406 259 40.005V40.8214H248.194V40.8695ZM256.983 39.3807C256.983 38.132 256.599 37.1715 255.878 36.4031C255.158 35.6347 254.102 35.2505 252.805 35.2505C252.229 35.2505 251.652 35.3466 251.076 35.5867C250.548 35.8268 250.019 36.115 249.635 36.4992C249.251 36.8834 248.867 37.3156 248.627 37.8439C248.387 38.3722 248.242 38.8524 248.242 39.3807H256.983Z" fill="#3A739D"/>
</svg>
