<svg width="212" height="96" viewBox="0 0 212 96" fill="none" xmlns="http://www.w3.org/2000/svg">
<path d="M38.4339 87.4408H38.492C37.5621 83.3923 35.0179 79.9556 31.5827 77.8597C29.6907 76.6296 27.5275 75.7834 25.2029 75.445C29.1935 73.9935 31.9636 70.0556 31.7699 65.5645C31.5116 60.045 26.8624 55.7361 21.3866 55.9964C15.9108 56.2568 11.6555 60.9432 11.8944 66.4627C12.0816 70.6349 14.7872 74.1041 18.4679 75.4384C16.0464 75.7899 13.7993 76.6816 11.8492 77.9964C8.53013 80.0988 6.07636 83.4704 5.15942 87.4343H5.21108C4.88176 88.7231 4.71387 90.0704 4.71387 91.4568V92.2248H38.9311V91.4633C38.9311 90.0704 38.7567 88.7231 38.4339 87.4408Z" fill="#3A739D"/>
<path d="M38.4339 35.4408H38.492C37.5621 31.3923 35.0179 27.9556 31.5827 25.8597C29.6907 24.6296 27.5275 23.7834 25.2029 23.445C29.1935 21.9935 31.9636 18.0556 31.7699 13.5645C31.5116 8.04495 26.8624 3.73608 21.3866 3.99643C15.9108 4.25679 11.6555 8.94318 11.8944 14.4627C12.0816 18.6349 14.7872 22.1041 18.4679 23.4384C16.0464 23.7899 13.7993 24.6816 11.8492 25.9964C8.53013 28.0988 6.07636 31.4704 5.15942 35.4343H5.21108C4.88176 36.7231 4.71387 38.0704 4.71387 39.4568V40.2248H38.9311V39.4633C38.9311 38.0704 38.7567 36.7231 38.4339 35.4408Z" fill="#3A739D"/>
<path d="M80.4339 87.4408H80.492C79.5621 83.3923 77.0179 79.9556 73.5827 77.8597C71.6907 76.6296 69.5275 75.7834 67.2029 75.445C71.1935 73.9935 73.9636 70.0556 73.7699 65.5645C73.5116 60.045 68.8624 55.7361 63.3866 55.9964C57.9108 56.2568 53.6555 60.9432 53.8944 66.4627C54.0816 70.6349 56.7872 74.1041 60.4679 75.4384C58.0464 75.7899 55.7993 76.6816 53.8492 77.9964C50.5301 80.0988 48.0764 83.4704 47.1594 87.4343H47.2111C46.8818 88.7231 46.7139 90.0704 46.7139 91.4568V92.2248H80.9311V91.4633C80.9311 90.0704 80.7567 88.7231 80.4339 87.4408Z" fill="#3A739D"/>
<path d="M80.4339 35.4408H80.492C79.5621 31.3923 77.0179 27.9556 73.5827 25.8597C71.6907 24.6296 69.5275 23.7834 67.2029 23.445C71.1935 21.9935 73.9636 18.0556 73.7699 13.5645C73.5116 8.04495 68.8624 3.73608 63.3866 3.99643C57.9108 4.25679 53.6555 8.94318 53.8944 14.4627C54.0816 18.6349 56.7872 22.1041 60.4679 23.4384C58.0464 23.7899 55.7993 24.6816 53.8492 25.9964C50.5301 28.0988 48.0764 31.4704 47.1594 35.4343H47.2111C46.8818 36.7231 46.7139 38.0704 46.7139 39.4568V40.2248H80.9311V39.4633C80.9311 38.0704 80.7567 36.7231 80.4339 35.4408Z" fill="#3A739D"/>
<path d="M122.434 87.4408H122.492C121.562 83.3923 119.018 79.9556 115.583 77.8597C113.691 76.6296 111.527 75.7834 109.203 75.445C113.193 73.9935 115.964 70.0556 115.77 65.5645C115.512 60.045 110.862 55.7361 105.387 55.9964C99.9108 56.2568 95.6555 60.9432 95.8944 66.4627C96.0816 70.6349 98.7872 74.1041 102.468 75.4384C100.046 75.7899 97.7993 76.6816 95.8492 77.9964C92.5301 80.0988 90.0764 83.4704 89.1594 87.4343H89.2111C88.8818 88.7231 88.7139 90.0704 88.7139 91.4568V92.2248H122.931V91.4633C122.931 90.0704 122.757 88.7231 122.434 87.4408Z" fill="#3A739D"/>
<path d="M122.434 35.4408H122.492C121.562 31.3923 119.018 27.9556 115.583 25.8597C113.691 24.6296 111.527 23.7834 109.203 23.445C113.193 21.9935 115.964 18.0556 115.77 13.5645C115.512 8.04495 110.862 3.73608 105.387 3.99643C99.9108 4.25679 95.6555 8.94318 95.8944 14.4627C96.0816 18.6349 98.7872 22.1041 102.468 23.4384C100.046 23.7899 97.7993 24.6816 95.8492 25.9964C92.5301 28.0988 90.0764 31.4704 89.1594 35.4343H89.2111C88.8818 36.7231 88.7139 38.0704 88.7139 39.4568V40.2248H122.931V39.4633C122.931 38.0704 122.757 36.7231 122.434 35.4408Z" fill="#3A739D"/>
<path d="M164.434 87.4408H164.492C163.562 83.3923 161.018 79.9556 157.583 77.8597C155.691 76.6296 153.527 75.7834 151.203 75.445C155.193 73.9935 157.964 70.0556 157.77 65.5645C157.512 60.045 152.862 55.7361 147.387 55.9964C141.911 56.2568 137.655 60.9432 137.894 66.4627C138.082 70.6349 140.787 74.1041 144.468 75.4384C142.046 75.7899 139.799 76.6816 137.849 77.9964C134.53 80.0988 132.076 83.4704 131.159 87.4343H131.211C130.882 88.7231 130.714 90.0704 130.714 91.4568V92.2248H164.931V91.4633C164.931 90.0704 164.757 88.7231 164.434 87.4408Z" fill="#3A739D" fill-opacity="0.1"/>
<path d="M164.434 35.4408H164.492C163.562 31.3923 161.018 27.9556 157.583 25.8597C155.691 24.6296 153.527 23.7834 151.203 23.445C155.193 21.9935 157.964 18.0556 157.77 13.5645C157.512 8.04495 152.862 3.73608 147.387 3.99643C141.911 4.25679 137.655 8.94318 137.894 14.4627C138.082 18.6349 140.787 22.1041 144.468 23.4384C142.046 23.7899 139.799 24.6816 137.849 25.9964C134.53 28.0988 132.076 31.4704 131.159 35.4343H131.211C130.882 36.7231 130.714 38.0704 130.714 39.4568V40.2248H164.931V39.4633C164.931 38.0704 164.757 36.7231 164.434 35.4408Z" fill="#3A739D"/>
<path d="M206.434 87.4408H206.492C205.562 83.3923 203.018 79.9556 199.583 77.8597C197.691 76.6296 195.527 75.7834 193.203 75.445C197.193 73.9935 199.964 70.0556 199.77 65.5645C199.512 60.045 194.862 55.7361 189.387 55.9964C183.911 56.2568 179.655 60.9432 179.894 66.4627C180.082 70.6349 182.787 74.1041 186.468 75.4384C184.046 75.7899 181.799 76.6816 179.849 77.9964C176.53 80.0988 174.076 83.4704 173.159 87.4343H173.211C172.882 88.7231 172.714 90.0704 172.714 91.4568V92.2248H206.931V91.4633C206.931 90.0704 206.757 88.7231 206.434 87.4408Z" fill="#3A739D" fill-opacity="0.1"/>
<path d="M206.434 35.4408H206.492C205.562 31.3923 203.018 27.9556 199.583 25.8597C197.691 24.6296 195.527 23.7834 193.203 23.445C197.193 21.9935 199.964 18.0556 199.77 13.5645C199.512 8.04495 194.862 3.73608 189.387 3.99643C183.911 4.25679 179.655 8.94318 179.894 14.4627C180.082 18.6349 182.787 22.1041 186.468 23.4384C184.046 23.7899 181.799 24.6816 179.849 25.9964C176.53 28.0988 174.076 31.4704 173.159 35.4343H173.211C172.882 36.7231 172.714 38.0704 172.714 39.4568V40.2248H206.931V39.4633C206.931 38.0704 206.757 36.7231 206.434 35.4408Z" fill="#3A739D"/>
</svg>
