<svg width="168" height="32" viewBox="0 0 168 32" fill="none" xmlns="http://www.w3.org/2000/svg">
<g clip-path="url(#clip0_239_2069)">
<path d="M61.8333 21.5273H63.6767V25.8793H68.6875V21.5273H70.5308V32H68.6875V27.584H63.6767V32H61.8333V21.5273Z" fill="#3C3C3C"></path>
<path d="M74.9992 21.5273H82.7867V23.1738H76.8425V25.8967H82.0925V27.5433H76.8425V30.3535H82.8625V32H74.9992V21.5273Z" fill="#3C3C3C"></path>
<path d="M90.2592 21.5273H91.9567L96.5417 32H94.605L93.5492 29.4924H88.62L87.5467 32H85.6683L90.2592 21.5273ZM92.8783 27.8691L91.0758 23.7091L89.2908 27.8691H92.8783Z" fill="#3C3C3C"></path>
<path d="M99.8842 21.5273H101.733V30.3244H107.252V32H99.8842V21.5273Z" fill="#3C3C3C"></path>
<path d="M111.475 23.232H108.144V21.5273H116.667V23.232H113.336V32H111.475V23.232Z" fill="#3C3C3C"></path>
<path d="M120.219 21.5273H122.062V25.8793H127.073V21.5273H128.917V32H127.073V27.584H122.062V32H120.219V21.5273Z" fill="#3C3C3C"></path>
<path fill-rule="evenodd" clip-rule="evenodd" d="M39.5792 1.52435L54.4075 27.6538C54.5967 27.9865 54.7182 28.3531 54.7652 28.7326C54.8121 29.1122 54.7836 29.4973 54.6812 29.8658C54.5788 30.2344 54.4045 30.5792 54.1684 30.8805C53.9322 31.1818 53.6389 31.4337 53.305 31.6218C52.8656 31.8702 52.3692 32.0005 51.8642 32H17.1967L34.4925 1.52435C34.6806 1.18702 34.9341 0.890397 35.2382 0.651754C35.5424 0.413111 35.8911 0.237223 36.2641 0.134338C36.6371 0.0314522 37.0268 0.00362595 37.4107 0.0524803C37.7946 0.101335 38.1649 0.225893 38.5 0.418898C38.9517 0.685362 39.3241 1.0669 39.5792 1.52435Z" fill="#4C7DDD"></path>
<path fill-rule="evenodd" clip-rule="evenodd" d="M20.3058 1.46036L26.3083 11.8342L14.7117 32H2.91667C2.14312 32 1.40125 31.6935 0.854272 31.1479C0.307291 30.6024 0 29.8624 0 29.0909C0.000529536 28.5892 0.131148 28.0961 0.379167 27.6596L15.2308 1.47781C15.4852 1.03011 15.8541 0.65772 16.2999 0.398638C16.7457 0.139556 17.2524 0.00305176 17.7683 0.00305176C18.2843 0.00305176 18.791 0.139556 19.2368 0.398638C19.6825 0.65772 20.0514 1.03011 20.3058 1.47781V1.46036Z" fill="#8CACEA"></path>
<path d="M77.4083 17.3382V5.12L71.3125 15.3018H70.21L64.1667 5.20145V17.3382H61.8333V0.581818H63.7992L70.7992 12.3578L77.7233 0.581818H79.6892V17.3382H77.4083Z" fill="#3C3C3C"></path>
<path d="M86.4033 16.4131C85.0731 15.702 83.9651 14.6391 83.2008 13.3411C82.4191 12.014 82.0156 10.4991 82.0342 8.96001C82.0156 7.42091 82.4191 5.906 83.2008 4.57891C83.9666 3.28062 85.0741 2.2162 86.4033 1.5011C87.816 0.768788 89.3846 0.386475 90.9767 0.386475C92.5687 0.386475 94.1374 0.768788 95.55 1.5011C96.8751 2.21231 97.9789 3.27297 98.7408 4.56728C99.5233 5.89833 99.9267 7.41715 99.9075 8.96001C99.9267 10.5029 99.5233 12.0217 98.7408 13.3527C97.9788 14.6455 96.8749 15.7042 95.55 16.4131C94.1374 17.1454 92.5687 17.5277 90.9767 17.5277C89.3846 17.5277 87.816 17.1454 86.4033 16.4131ZM94.3133 14.5455C95.2888 13.9958 96.0956 13.1912 96.6467 12.2182C97.2183 11.2152 97.5123 10.0787 97.4983 8.9251C97.5123 7.77149 97.2183 6.63495 96.6467 5.63201C96.0956 4.65904 95.2888 3.85441 94.3133 3.30473C93.2966 2.75872 92.1543 2.48791 91 2.51928C89.8299 2.50432 88.6761 2.79304 87.6517 3.3571C86.6756 3.90606 85.8687 4.71086 85.3183 5.68437C84.7467 6.68731 84.4527 7.82386 84.4667 8.97746C84.4527 10.1311 84.7467 11.2676 85.3183 12.2706C85.8687 13.2441 86.6756 14.0489 87.6517 14.5978C88.6794 15.1497 89.8331 15.4264 91 15.4007C92.1606 15.4108 93.3033 15.1158 94.3133 14.5455Z" fill="#3C3C3C"></path>
<path d="M102.247 0.58181H109.323C110.961 0.549373 112.584 0.910562 114.053 1.6349C115.38 2.29491 116.49 3.32067 117.25 4.59054C118.034 5.9125 118.438 7.42427 118.417 8.95999C118.437 10.4956 118.033 12.0071 117.25 13.3294C116.491 14.6015 115.381 15.6293 114.053 16.2909C112.584 17.0152 110.961 17.3764 109.323 17.344H102.247V0.58181ZM109.183 15.2553C110.425 15.2825 111.655 15.0111 112.77 14.464C113.763 13.9725 114.592 13.2045 115.156 12.2531C115.728 11.2509 116.018 10.1131 115.996 8.95999C116.018 7.80686 115.728 6.66905 115.156 5.6669C114.592 4.71544 113.763 3.94749 112.77 3.45599C111.655 2.90889 110.425 2.63749 109.183 2.66472H104.644V15.2553H109.183Z" fill="#3C3C3C"></path>
<path d="M133.537 15.2553V17.3382H121.333V0.581818H133.193V2.66473H123.748V7.808H132.172V9.84436H123.748V15.2553H133.537Z" fill="#3C3C3C"></path>
<path d="M147.939 17.3382L144.311 12.2182C143.867 12.2531 143.512 12.2705 143.255 12.2705H139.107V17.3382H136.704V0.581818H143.255C145.429 0.581818 147.142 1.09964 148.394 2.13527C149.012 2.65654 149.502 3.31186 149.826 4.05107C150.151 4.79028 150.301 5.59376 150.267 6.4C150.314 7.57966 149.988 8.74429 149.333 9.728C148.657 10.6632 147.698 11.3584 146.597 11.712L150.582 17.3382H147.939ZM146.667 9.22182C147.065 8.87665 147.377 8.44443 147.58 7.95895C147.782 7.47347 147.869 6.94789 147.834 6.42327C147.87 5.90028 147.783 5.37612 147.581 4.89238C147.378 4.40863 147.066 3.97859 146.667 3.63636C145.649 2.9187 144.412 2.57535 143.167 2.66473H139.084V10.2284H143.167C144.416 10.3106 145.654 9.9545 146.667 9.22182Z" fill="#3C3C3C"></path>
<path d="M168 0.581818V17.3382H166.034L155.954 4.84073V17.3382H153.551V0.581818H155.522L165.603 13.0793V0.581818H168Z" fill="#3C3C3C"></path>
</g>
<defs>
<clipPath id="clip0_239_2069">
<rect width="168" height="32" fill="white"></rect>
</clipPath>
</defs>
</svg>